<?xml version="1.0" encoding="UTF-8"?><svg id="Layer_1" xmlns="http://www.w3.org/2000/svg" viewBox="0 0 740.35 429.82"><defs><style>.cls-1{font-size:33.03px;}.cls-1,.cls-2,.cls-3,.cls-4,.cls-5,.cls-6{font-family:Montserrat-Medium, Montserrat;font-weight:500;}.cls-2{font-size:24.78px;}.cls-7,.cls-8{opacity:.11;}.cls-7,.cls-9{fill:#606060;}.cls-10{letter-spacing:-.02em;}.cls-11{letter-spacing:-.02em;}.cls-12{letter-spacing:0em;}.cls-13{opacity:.19;}.cls-14{fill:#1d1d1b;fill-rule:evenodd;}.cls-15{letter-spacing:0em;}.cls-16{letter-spacing:-.02em;}.cls-3{font-size:24.78px;}.cls-17{fill:none;}.cls-4{font-size:24.78px;}.cls-18{letter-spacing:-.02em;}.cls-9{opacity:.57;}.cls-5{font-size:24.78px;}.cls-6{font-size:24.77px;}.cls-19{letter-spacing:0em;}.cls-20{letter-spacing:-.02em;}</style></defs><g class="cls-8"><path class="cls-9" d="m726.07,376.26c0-93.63-36.17-178.8-95.27-242.34l-99.96,95.52c34.85,38.46,56.08,89.49,56.08,145.48,0,.45-.01.89-.02,1.34h139.17Z"/><path class="cls-9" d="m525.15,223.4l99.93-95.49c-46.34-47.56-105.86-82.2-172.67-98.01l-33.73,133.71c41.2,9.42,77.92,30.59,106.47,59.79Z"/></g><path class="cls-7" d="m370.15,20.34h0c-25.43,0-50.24,2.67-74.16,7.74l33.76,133.84c13.09-2.47,26.59-3.77,40.4-3.77h0c13.81,0,27.31,1.31,40.4,3.77l33.76-133.84c-23.92-5.07-48.73-7.74-74.16-7.74Z"/><g class="cls-8"><path class="cls-9" d="m14.29,375.39c0-93.63,36.17-178.8,95.27-242.34l99.96,95.52c-34.85,38.46-56.08,89.49-56.08,145.48,0,.45.01.89.02,1.34H14.29Z"/><path class="cls-9" d="m215.2,222.53l-99.93-95.49c46.34-47.56,105.86-82.2,172.67-98.01l33.73,133.71c-41.2,9.42-77.92,30.59-106.47,59.79Z"/></g><text class="cls-4" transform="translate(189.7 122.52) rotate(-28.79)"><tspan x="0" y="0">Li</tspan><tspan class="cls-11" x="21.63" y="0">k</tspan><tspan x="36.34" y="0">ely</tspan></text><text class="cls-6" transform="translate(64.67 328.2) rotate(-68.85)"><tspan x="0" y="0">Highly Li</tspan><tspan class="cls-10" x="110.05" y="0">k</tspan><tspan x="124.77" y="0">ely</tspan></text><text class="cls-3" transform="translate(487.72 86.51) rotate(30.1)"><tspan x="0" y="0">Li</tspan><tspan class="cls-20" x="21.63" y="0">k</tspan><tspan class="cls-15" x="36.34" y="0">ely</tspan></text><text class="cls-5" transform="translate(613.75 184.28) rotate(66.15)"><tspan x="0" y="0">Highly Li</tspan><tspan class="cls-18" x="110.05" y="0">k</tspan><tspan x="124.77" y="0">ely</tspan></text><text class="cls-1" transform="translate(18.71 410.58)"><tspan class="cls-16" x="0" y="0">F</tspan><tspan x="20.35" y="0">alli</tspan><tspan class="cls-19" x="67.75" y="0">n</tspan><tspan x="90.34" y="0">g</tspan></text><text class="cls-1" transform="translate(615.18 410.58)"><tspan x="0" y="0">Risi</tspan><tspan class="cls-19" x="59" y="0">n</tspan><tspan x="81.59" y="0">g</tspan></text><text class="cls-2" transform="translate(324.48 72.83)"><tspan x="0" y="0">Neut</tspan><tspan class="cls-12" x="62.31" y="0">r</tspan><tspan x="72.27" y="0">al</tspan></text><g class="cls-13"><path class="cls-17" d="m599.16,370.96c-.09-26.56-4.65-53.25-13.77-78.33l-70.47,25.65c6.1,16.83,9.14,34.68,9.24,52.68h74.99Z"/><path class="cls-14" d="m552.76,322.68l7.25-1.91c-1.18-4.07-2.23-8.19-3.67-12.18l-7.11,2.38c1.39,3.84,2.4,7.79,3.53,11.71Z"/><path class="cls-14" d="m557.09,344.18l7.43-1.05c-.22-2.11-.66-4.19-1.01-6.28-.39-2.08-.71-4.18-1.16-6.25l-7.34,1.53c.44,1.99.74,4.01,1.11,6.01.35,2.01.77,4.01.98,6.04Z"/><path class="cls-14" d="m558.88,365.97l7.5-.2-.08-3.18c-.02-1.06-.05-2.12-.15-3.17l-.48-6.34-7.47.68.46,6.1c.1,1.02.13,2.03.15,3.05l.08,3.06Z"/><path class="cls-17" d="m585.39,292.62c-9.18-25.06-22.73-48.45-39.84-68.85l-57.42,48.23c11.52,13.76,20.62,29.48,26.79,46.27l70.47-25.65Z"/><polygon class="cls-14" points="525.2 263.18 531.35 258.9 527.67 253.71 523.75 248.7 517.88 253.38 521.65 258.2 525.2 263.18"/><path class="cls-14" d="m536.69,281.86l6.61-3.54c-.97-1.89-2.09-3.69-3.12-5.54-1.06-1.83-2.08-3.7-3.26-5.46l-6.37,3.97c1.14,1.69,2.11,3.49,3.14,5.25,1,1.78,2.08,3.51,3.01,5.33Z"/><polygon class="cls-14" points="545.85 301.71 552.83 298.96 551.66 296 551.07 294.52 550.42 293.07 547.8 287.27 541.02 290.47 543.54 296.05 544.17 297.44 544.73 298.86 545.85 301.71"/><path class="cls-17" d="m545.56,223.78c-2.19-2.51-4.32-5.06-6.57-7.51l-6.89-7.22-7.22-6.89c-2.45-2.25-5-4.39-7.51-6.57-10.2-8.55-21.15-16.22-32.68-22.89l-37.55,64.91c7.75,4.49,15.12,9.65,22,15.4,1.68,1.49,3.41,2.91,5.07,4.43l4.87,4.64,4.64,4.87c1.52,1.65,2.94,3.39,4.43,5.07l57.42-48.23Z"/><path class="cls-14" d="m478.97,216.66l4.33-6.13c-3.41-2.53-7.04-4.72-10.6-7.03l-3.92,6.39c3.42,2.23,6.92,4.32,10.19,6.76Z"/><polygon class="cls-14" points="496.14 230.31 501.15 224.72 496.34 220.56 495.14 219.52 493.89 218.53 491.39 216.57 486.76 222.46 489.16 224.35 490.36 225.3 491.52 226.3 496.14 230.31"/><path class="cls-14" d="m511.54,245.82l5.61-4.97c-1.36-1.63-2.83-3.15-4.3-4.68-1.47-1.52-2.9-3.09-4.42-4.58l-5.28,5.32c1.46,1.43,2.83,2.94,4.25,4.4,1.41,1.47,2.83,2.94,4.14,4.51Z"/><path class="cls-17" d="m484.68,172.69c-11.53-6.67-23.65-12.35-36.17-16.94-12.54-4.56-25.49-7.97-38.62-10.27l-12.94,73.87c8.81,1.54,17.49,3.81,25.9,6.87,8.39,3.09,16.52,6.9,24.27,11.39l37.55-64.91Z"/><path class="cls-14" d="m419.66,188.72l1.96-7.24c-2.03-.62-4.1-1.08-6.17-1.55-2.07-.47-4.13-.98-6.2-1.41l-1.48,7.35c2,.41,3.98.91,5.97,1.35,1.99.45,3.98.89,5.93,1.49Z"/><path class="cls-14" d="m440.45,195.69l2.79-6.96c-1.98-.77-3.94-1.57-5.93-2.31l-6.03-2.04-2.33,7.13,5.79,1.96c1.91.71,3.8,1.49,5.7,2.23Z"/><polygon class="cls-14" points="460.25 204.95 463.83 198.36 458.17 195.46 455.34 194.01 452.44 192.69 449.3 199.5 452.08 200.76 454.8 202.16 460.25 204.95"/><path class="cls-17" d="m409.89,145.47c-13.13-2.29-26.44-3.45-39.72-3.5-13.28.05-26.59,1.2-39.72,3.5l12.94,73.87c8.82-1.54,17.78-2.32,26.78-2.37,9,.05,17.96.84,26.78,2.37l12.94-73.87Z"/><path class="cls-14" d="m354.34,182.83l-.62-7.47-3.17.24c-1.06.09-2.1.25-3.16.38l-6.31.8,1.1,7.42,6.07-.77c1.01-.12,2.02-.28,3.04-.36l3.05-.23Z"/><polygon class="cls-14" points="376.27 182.28 376.5 174.78 370.15 174.62 363.79 174.78 364.03 182.28 370.15 182.12 376.27 182.28"/><path class="cls-14" d="m398.04,184.19l1.1-7.42-6.31-.8c-1.05-.12-2.1-.29-3.16-.37l-3.17-.24-.62,7.47,3.05.23c1.02.07,2.02.24,3.04.36l6.07.77Z"/><path class="cls-17" d="m330.46,145.47c-13.13,2.3-26.08,5.71-38.62,10.27-12.53,4.59-24.64,10.27-36.17,16.94l37.55,64.91c7.75-4.49,15.88-8.3,24.27-11.39,8.41-3.06,17.09-5.33,25.9-6.87l-12.94-73.87Z"/><polygon class="cls-14" points="290.94 199.55 287.79 192.75 284.9 194.07 282.07 195.51 276.41 198.42 280 205.01 285.44 202.21 288.16 200.82 290.94 199.55"/><path class="cls-14" d="m311.34,191.52l-2.34-7.13-6.03,2.04c-1.98.75-3.95,1.55-5.92,2.32l2.8,6.96c1.9-.74,3.79-1.51,5.7-2.23l5.79-1.96Z"/><path class="cls-14" d="m332.47,185.9l-1.49-7.35c-2.07.44-4.14.94-6.2,1.41l-3.1.72c-1.03.23-2.04.56-3.07.84l1.97,7.24c.98-.27,1.95-.58,2.95-.81l2.98-.69c1.99-.45,3.97-.93,5.96-1.36Z"/><path class="cls-17" d="m255.67,172.69c-11.53,6.67-22.47,14.34-32.68,22.89-2.51,2.19-5.06,4.32-7.51,6.57l-7.22,6.89-6.89,7.22c-2.25,2.45-4.39,5-6.57,7.51l57.42,48.23c1.49-1.68,2.91-3.41,4.43-5.07l4.64-4.87,4.87-4.64c1.65-1.52,3.39-2.94,5.07-4.43,6.88-5.76,14.25-10.92,22-15.4l-37.55-64.91Z"/><path class="cls-14" d="m237.1,237l-5.29-5.32c-1.51,1.49-2.94,3.06-4.41,4.58l-2.19,2.3c-.73.77-1.4,1.59-2.1,2.39l5.62,4.97c.68-.76,1.32-1.56,2.02-2.3l2.11-2.21c1.42-1.47,2.79-2.97,4.24-4.41Z"/><path class="cls-14" d="m253.55,222.5l-4.64-5.89c-3.39,2.56-6.55,5.39-9.75,8.16l5.01,5.58c3.09-2.67,6.12-5.39,9.38-7.85Z"/><path class="cls-14" d="m271.47,209.97l-3.93-6.39c-3.56,2.31-7.19,4.5-10.6,7.03l4.33,6.12c3.27-2.44,6.77-4.55,10.19-6.77Z"/><path class="cls-17" d="m194.79,223.78c-17.1,20.4-30.66,43.79-39.84,68.85l70.47,25.65c6.17-16.79,15.27-32.51,26.79-46.27l-57.42-48.23Z"/><path class="cls-14" d="m199.28,290.59l-6.78-3.2-2.62,5.8c-.45.96-.86,1.94-1.23,2.93l-1.17,2.96,6.98,2.75,1.12-2.85c.36-.95.75-1.9,1.19-2.82l2.52-5.57Z"/><path class="cls-14" d="m209.78,271.33l-6.37-3.96c-1.18,1.76-2.19,3.63-3.26,5.46-1.04,1.85-2.16,3.65-3.12,5.54l6.61,3.54c.92-1.82,2.01-3.55,3-5.33,1.03-1.76,1.99-3.56,3.13-5.25Z"/><path class="cls-14" d="m222.39,253.48l-5.87-4.67c-1.3,1.67-2.64,3.32-3.91,5.01l-3.69,5.18,6.16,4.28,3.55-4.99c1.23-1.63,2.51-3.21,3.77-4.82Z"/><path class="cls-17" d="m154.96,292.62c-9.12,25.08-13.68,51.78-13.77,78.33h74.99c.1-18,3.15-35.85,9.24-52.68l-70.47-25.65Z"/><path class="cls-14" d="m182.15,353.88l-7.47-.67-.48,6.34c-.1,1.06-.13,2.12-.15,3.18l-.08,3.18,7.5.19.08-3.06c.02-1.02.04-2.04.14-3.06l.46-6.1Z"/><path class="cls-14" d="m185.34,332.18l-7.34-1.53c-.45,2.07-.77,4.17-1.16,6.25-.36,2.09-.79,4.17-1.01,6.28l7.43,1.05c.21-2.03.63-4.03.97-6.04.38-2,.68-4.02,1.11-6.01Z"/><path class="cls-14" d="m191.09,311.09l-7.11-2.38c-1.45,3.99-2.48,8.11-3.67,12.18l7.25,1.91c1.14-3.91,2.13-7.88,3.53-11.71Z"/></g></svg>