<?xml version="1.0" encoding="UTF-8"?><svg id="Layer_1" xmlns="http://www.w3.org/2000/svg" xmlns:xlink="http://www.w3.org/1999/xlink" viewBox="0 0 168.25 168.18"><defs><style>.cls-1{fill:url(#linear-gradient);}.cls-1,.cls-2{stroke-width:0px;}.cls-2{fill:#f8f4f0;}</style><linearGradient id="linear-gradient" x1="84.12" y1="15.1" x2="84.13" y2="153.08" gradientUnits="userSpaceOnUse"><stop offset="0" stop-color="#2db4a0"/><stop offset="1" stop-color="#3cad4c"/></linearGradient></defs><circle class="cls-1" cx="84.12" cy="84.09" r="68.99"/><path class="cls-2" d="m57.8,56.54h6.1c5.15,0,10.17.84,15.08,2.63.12,0,.24.12.36.12.48,0,.96-.36,1.08-.84.24-.6-.12-1.32-.72-1.56-5.03-1.79-10.41-2.75-15.8-2.75h-6.1c-.72,0-1.2.48-1.2,1.2s.48,1.2,1.2,1.2Z"/><path class="cls-2" d="m110.45,54.14h-6.1c-5.38,0-10.77.96-15.92,2.75-.6.24-.96.96-.72,1.56.12.48.6.84,1.08.84.12,0,.24,0,.36-.12,5.03-1.79,10.05-2.63,15.2-2.63h6.1c.72,0,1.2-.48,1.2-1.2s-.48-1.2-1.2-1.2Z"/><path class="cls-2" d="m57.8,66.11h6.1c5.15,0,10.17.84,15.08,2.63.12,0,.24.12.36.12.48,0,.96-.36,1.08-.84.24-.6-.12-1.32-.72-1.56-5.15-1.91-10.41-2.75-15.92-2.75h-5.98c-.72,0-1.2.48-1.2,1.2s.48,1.2,1.2,1.2Z"/><path class="cls-2" d="m110.45,63.72h-6.1c-5.38,0-10.77.96-15.92,2.75-.6.24-.96.96-.72,1.56.12.48.6.84,1.08.84.12,0,.24,0,.36-.12,4.91-1.79,9.93-2.63,15.08-2.63h6.22c.72,0,1.2-.48,1.2-1.2s-.48-1.2-1.2-1.2Z"/><path class="cls-2" d="m57.8,75.68h6.1c5.15,0,10.17.84,15.08,2.63.12,0,.24.12.36.12.48,0,.96-.36,1.08-.84.24-.6-.12-1.32-.72-1.56-5.15-1.91-10.41-2.75-15.92-2.75h-5.98c-.72,0-1.2.48-1.2,1.2s.48,1.2,1.2,1.2Z"/><path class="cls-2" d="m110.45,73.29h-6.1c-5.38,0-10.77.96-15.92,2.75-.6.24-.96.96-.72,1.56.12.48.6.84,1.08.84.12,0,.24,0,.36-.12,4.91-1.79,9.93-2.63,15.08-2.63h6.22c.72,0,1.2-.48,1.2-1.2s-.48-1.2-1.2-1.2Z"/><path class="cls-2" d="m57.8,85.26h6.1c5.15,0,10.17.84,15.08,2.63.12,0,.24.12.36.12.48,0,.96-.36,1.08-.84.24-.6-.12-1.32-.72-1.56-5.15-1.91-10.41-2.75-15.92-2.75h-5.98c-.72,0-1.2.48-1.2,1.2s.48,1.2,1.2,1.2Z"/><path class="cls-2" d="m110.45,82.86h-6.1c-5.38,0-10.77.96-15.92,2.75-.6.24-.96.96-.72,1.56.12.48.6.84,1.08.84.12,0,.24,0,.36-.12,4.91-1.79,9.93-2.63,15.08-2.63h6.22c.72,0,1.2-.48,1.2-1.2s-.48-1.2-1.2-1.2Z"/><path class="cls-2" d="m57.8,94.83h6.1c5.15,0,10.17.84,15.08,2.63.12,0,.24.12.36.12.48,0,.96-.36,1.08-.84.24-.6-.12-1.32-.72-1.56-5.15-1.91-10.41-2.75-15.92-2.75h-5.98c-.72,0-1.2.48-1.2,1.2s.48,1.2,1.2,1.2Z"/><path class="cls-2" d="m110.45,92.44h-6.1c-5.38,0-10.77.96-15.92,2.75-.6.24-.96.96-.72,1.56.12.48.6.84,1.08.84.12,0,.24,0,.36-.12,4.91-1.79,9.93-2.63,15.08-2.63h6.22c.72,0,1.2-.48,1.2-1.2s-.48-1.2-1.2-1.2Z"/><path class="cls-2" d="m117.75,49.36h-1.32v-1.2c0-.72-.48-1.2-1.2-1.2h-9.21c-.72,0-1.2.48-1.2,1.2s.48,1.2,1.2,1.2h8.02v52.65h-9.69c-6.46,0-13.04,1.44-19.03,4.07v-52.41c4.91-2.39,10.05-3.71,15.44-4.19.6,0,1.2-.6,1.08-1.32,0-.72-.6-1.2-1.32-1.08-5.74.48-11.25,2.03-16.39,4.55-6.34-3.11-13.28-4.67-20.22-4.67h-10.89c-.72,0-1.2.48-1.2,1.2v1.2h-1.32c-1.91,0-3.47,1.56-3.47,3.47v27.64c0,.72.48,1.2,1.2,1.2s1.2-.48,1.2-1.2v-27.64c0-.6.48-1.08,1.08-1.08h1.32v51.46c0,.72.48,1.2,1.2,1.2h4.79c.72,0,1.2-.48,1.2-1.2s-.48-1.2-1.2-1.2h-3.59v-52.65h9.69c6.58,0,13.04,1.56,19.03,4.31v52.41c-5.98-2.63-12.56-4.07-19.03-4.07h-.96c-.72,0-1.2.48-1.2,1.2s.48,1.2,1.2,1.2h.96c3.23,0,6.34.36,9.57,1.08v14.48c0,.36.24.84.6,1.08s.84.24,1.2,0l4.31-2.15,4.31,2.15c-.12.12,0,.12.24.12s.48,0,.6-.12c.36-.24.6-.6.6-1.08v-11.25c5.98-2.87,12.45-4.31,19.03-4.31h10.89c.72,0,1.2-.48,1.2-1.2v-51.46h1.32c.6,0,1.08.48,1.08,1.08v12.09c0,.72.48,1.2,1.2,1.2s1.2-.48,1.2-1.2v-12.09c0-1.91-1.56-3.47-3.47-3.47Zm-34.82,68.69l-3.11-1.56c-.36-.12-.72-.12-1.08,0l-2.99,1.56v-11.97c2.51.72,4.91,1.56,7.18,2.75v9.21Z"/><path class="cls-2" d="m120.02,68.62c-.72,0-1.2.48-1.2,1.2v40.69c0,.6-.48,1.08-1.08,1.08h-28.84c-.72,0-1.2.48-1.2,1.2s.48,1.2,1.2,1.2h28.84c1.91,0,3.47-1.56,3.47-3.47v-40.69c0-.72-.48-1.2-1.2-1.2Z"/><path class="cls-2" d="m69.53,111.58h-19.03c-.6,0-1.08-.48-1.08-1.08v-19.27c0-.72-.48-1.2-1.2-1.2s-1.2.48-1.2,1.2v19.39c0,1.79,1.56,3.35,3.47,3.35h19.03c.72,0,1.2-.48,1.2-1.2s-.6-1.2-1.2-1.2Z"/><path class="cls-2" d="m48.23,88.01c.72,0,1.2-.48,1.2-1.2v-2.15c0-.72-.48-1.2-1.2-1.2s-1.2.48-1.2,1.2v2.15c0,.6.48,1.2,1.2,1.2Z"/><path class="cls-2" d="m115.24,109.19c.72,0,1.2-.48,1.2-1.2s-.48-1.2-1.2-1.2h-19.15c-.72,0-1.2.48-1.2,1.2s.48,1.2,1.2,1.2h19.15Z"/><path class="cls-2" d="m69.53,106.8h-16.51c-.72,0-1.2.48-1.2,1.2s.48,1.2,1.2,1.2h16.51c.72,0,1.2-.48,1.2-1.2s-.6-1.2-1.2-1.2Z"/></svg>