<?xml version="1.0" encoding="UTF-8"?><svg id="Layer_1" xmlns="http://www.w3.org/2000/svg" xmlns:xlink="http://www.w3.org/1999/xlink" viewBox="0 0 168.25 168.18"><defs><style>.cls-1{fill:url(#linear-gradient);}.cls-1,.cls-2{stroke-width:0px;}.cls-2{fill:#f8f4f0;}</style><linearGradient id="linear-gradient" x1="84.12" y1="15.1" x2="84.13" y2="153.08" gradientUnits="userSpaceOnUse"><stop offset="0" stop-color="#2db4a0"/><stop offset="1" stop-color="#3cad4c"/></linearGradient></defs><circle class="cls-1" cx="84.12" cy="84.09" r="68.99"/><path class="cls-2" d="m104.37,81.92v-18.8h-8.68v18.8h-2.89v-15.91h-8.68v15.91h-2.89v-18.8h-8.68v18.8h-2.89v-21.69h-8.68v21.69h-2.89v-14.46h-8.68v14.46h-2.89v2.89h60.74v-2.89h-2.89Zm-5.79-15.91h2.89v15.91h-2.89v-15.91Zm-11.57,2.89h2.89v13.02h-2.89v-13.02Zm-11.57-2.89h2.89v15.91h-2.89v-15.91Zm-11.57-2.89h2.89v18.8h-2.89v-18.8Zm-11.57,7.23h2.89v11.57h-2.89v-11.57Z"/><rect class="cls-2" x="46.52" y="87.7" width="27.48" height="2.89"/><rect class="cls-2" x="46.52" y="93.49" width="27.48" height="2.89"/><rect class="cls-2" x="46.52" y="99.27" width="27.48" height="2.89"/><rect class="cls-2" x="46.52" y="105.06" width="27.48" height="2.89"/><rect class="cls-2" x="46.52" y="110.84" width="27.48" height="2.89"/><path class="cls-2" d="m110.16,107.95c-5.64,0-10.12-4.48-10.12-10.12s4.48-10.12,10.12-10.12,10.12,4.48,10.12,10.12-4.48,10.12-10.12,10.12Zm0-17.36c-4.05,0-7.23,3.18-7.23,7.23s3.18,7.23,7.23,7.23,7.23-3.18,7.23-7.23-3.18-7.23-7.23-7.23Z"/><path class="cls-2" d="m99.31,105.06h-22.42v2.89h25.02c-1.01-.87-1.88-1.74-2.6-2.89Z"/><path class="cls-2" d="m97.29,99.27h-20.39v2.89h20.97c-.29-.87-.58-1.88-.58-2.89Z"/><path class="cls-2" d="m97.86,93.49h-20.97v2.89h20.39c0-1.01.29-2.02.58-2.89Z"/><path class="cls-2" d="m101.91,87.7h-25.02v2.89h22.42c.72-1.16,1.59-2.02,2.6-2.89Z"/><path class="cls-2" d="m40.74,42.87v76.65h49.17v-1.45c0-.43,0-1.01.14-1.45h-46.43v-59.3h66.53v27.48c1.01,0,2.02.14,2.89.29v-42.23H40.74Zm2.89,2.89h54.96v8.68h-54.96v-8.68Zm57.85,8.68v-8.68h8.68v8.68h-8.68Z"/><path class="cls-2" d="m92.95,110.84h-16.05v2.89h14.03c.43-1.01,1.16-2.02,2.02-2.89Z"/><path class="cls-2" d="m127.51,129.65h-2.89v-11.57c0-2.46-1.88-4.34-4.34-4.34h-20.25c-2.46,0-4.34,1.88-4.34,4.34v11.57h-2.89v-11.57c0-4.05,3.18-7.23,7.23-7.23h20.25c4.05,0,7.23,3.18,7.23,7.23v11.57Z"/></svg>