<?xml version="1.0" encoding="UTF-8"?><svg id="Layer_1" xmlns="http://www.w3.org/2000/svg" xmlns:xlink="http://www.w3.org/1999/xlink" viewBox="0 0 168.25 168.18"><defs><style>.cls-1{fill:url(#linear-gradient);}.cls-1,.cls-2{stroke-width:0px;}.cls-2{fill:#f8f4f0;}</style><linearGradient id="linear-gradient" x1="84.12" y1="15.1" x2="84.13" y2="153.08" gradientUnits="userSpaceOnUse"><stop offset="0" stop-color="#2db4a0"/><stop offset="1" stop-color="#3cad4c"/></linearGradient></defs><circle class="cls-1" cx="84.12" cy="84.09" r="68.99"/><path class="cls-2" d="m79.28,87.72c2.68,0,4.85-2.16,4.86-4.83,0-2.68-2.16-4.85-4.83-4.86-.35,0-.7.04-1.04.11l-7.59-15.19c-.3-.6-1.03-.84-1.62-.55-.27.14-.49.37-.6.66l-9.63,25.69-5.04-17.12-2.32.68,6.06,20.6c.15.5.6.85,1.12.87h.04c.51,0,.96-.31,1.14-.79l9.93-26.48,6.36,12.72c-2.02,1.74-2.24,4.79-.5,6.81.92,1.07,2.27,1.68,3.68,1.68Zm0-7.27c1.34,0,2.42,1.08,2.42,2.42s-1.08,2.42-2.42,2.42-2.42-1.08-2.42-2.42,1.08-2.42,2.42-2.42Z"/><rect class="cls-2" x="93.29" y="92.65" width="2.42" height="2.42" transform="translate(-38.63 97.9) rotate(-46.54)"/><rect class="cls-2" x="89.77" y="89.31" width="2.42" height="2.42" transform="translate(-37.31 94.3) rotate(-46.54)"/><rect class="cls-2" x="86.25" y="85.98" width="2.42" height="2.42" transform="translate(-35.98 90.71) rotate(-46.54)"/><path class="cls-2" d="m105.93,71.97c6.69,0,12.12-5.42,12.12-12.12s-5.42-12.12-12.12-12.12-12.12,5.42-12.12,12.12c0,6.69,5.43,12.11,12.12,12.12Zm0-21.81c5.35,0,9.69,4.34,9.69,9.69s-4.34,9.69-9.69,9.69-9.69-4.34-9.69-9.69c0-5.35,4.34-9.69,9.69-9.69Z"/><path class="cls-2" d="m105.93,116.8c6.69,0,12.12-5.42,12.12-12.12s-5.42-12.12-12.12-12.12-12.12,5.42-12.12,12.12c0,6.69,5.43,12.11,12.12,12.12Zm0-21.81c5.35,0,9.69,4.34,9.69,9.69s-4.34,9.69-9.69,9.69-9.69-4.34-9.69-9.69c0-5.35,4.34-9.69,9.69-9.69Z"/><rect class="cls-2" x="85.99" y="77.38" width="2.42" height="2.42" transform="translate(-30.04 84.68) rotate(-45)"/><rect class="cls-2" x="89.41" y="73.96" width="2.42" height="2.42" transform="translate(-26.61 86.1) rotate(-45)"/><rect class="cls-2" x="92.84" y="70.53" width="2.42" height="2.42" transform="translate(-23.18 87.52) rotate(-45)"/><path class="cls-2" d="m101.09,59.86h1.21v6.06c0,.67.54,1.21,1.21,1.21h4.85c.67,0,1.21-.54,1.21-1.21v-6.06h1.21c.67,0,1.21-.54,1.21-1.21,0-.28-.09-.54-.27-.76l-4.85-6.06c-.45-.52-1.24-.58-1.77-.13-.04.04-.09.08-.13.13l-4.85,6.06c-.42.52-.33,1.28.19,1.7.22.17.48.27.76.27Zm4.85-5.33l2.33,2.91c-.63.05-1.12.58-1.12,1.21v6.06h-2.42v-6.06c0-.63-.49-1.16-1.12-1.21l2.33-2.91Z"/><path class="cls-2" d="m104.99,112.72c.42.52,1.18.61,1.7.19.07-.06.13-.12.19-.19l4.85-6.06c.42-.52.33-1.28-.19-1.7-.22-.17-.48-.27-.76-.27h-1.21v-6.06c0-.67-.54-1.21-1.21-1.21h-4.85c-.67,0-1.21.54-1.21,1.21v6.06h-1.21c-.67,0-1.21.54-1.21,1.21,0,.28.09.54.27.76l4.85,6.06Zm-.27-6.82v-6.06h2.42v6.06c0,.63.49,1.16,1.12,1.21l-2.33,2.91-2.33-2.91c.63-.05,1.12-.58,1.12-1.21Z"/><path class="cls-2" d="m121.69,121.65H47.78c-.67,0-1.21-.54-1.21-1.21V46.53h2.42v72.7h72.7v2.42Z"/></svg>