<?xml version="1.0" encoding="UTF-8"?><svg id="Layer_1" xmlns="http://www.w3.org/2000/svg" xmlns:xlink="http://www.w3.org/1999/xlink" viewBox="0 0 168.25 168.18"><defs><style>.cls-1{fill:url(#linear-gradient);}.cls-1,.cls-2{stroke-width:0px;}.cls-2{fill:#f8f4f0;}</style><linearGradient id="linear-gradient" x1="84.12" y1="15.1" x2="84.13" y2="153.08" gradientUnits="userSpaceOnUse"><stop offset="0" stop-color="#2db4a0"/><stop offset="1" stop-color="#3cad4c"/></linearGradient></defs><circle class="cls-1" cx="84.12" cy="84.09" r="68.99"/><path class="cls-2" d="m128.09,52.5c-25.18,0-42.83-12.59-43.01-12.72-.02-.01-.04-.02-.06-.03-.1-.07-.21-.1-.32-.15-.09-.03-.17-.08-.27-.1-.11-.02-.22-.01-.33-.01-.1,0-.19,0-.29,0-.1.02-.19.07-.29.1-.1.04-.2.07-.3.14-.02.01-.05.01-.07.03-.17.13-17.83,12.72-43.01,12.72-.9,0-1.63.73-1.63,1.63,0,.65.52,64.92,45.18,76.5.14.04.27.05.4.05h0c.13,0,.27-.02.4-.05,44.67-11.58,45.19-75.85,45.19-76.5,0-.9-.73-1.63-1.63-1.63Zm-43.96,74.85c-37.98-10.22-41.9-61.79-42.29-71.61,22.34-.46,38.3-10.02,42.29-12.67,4,2.64,19.96,12.21,42.29,12.67-.4,9.82-4.31,61.39-42.29,71.61Zm26.05-32.51c.9,0,1.63.73,1.63,1.63s-.73,1.63-1.63,1.63h-52.11c-.9,0-1.63-.73-1.63-1.63v-29.32c0-.9.73-1.63,1.63-1.63s1.63.73,1.63,1.63v27.69h50.48Zm-26-26.49c.15-.56.59-1,1.15-1.15.56-.15,1.16.01,1.57.42l8.54,8.54,9.31-10.65h-1.09c-.9,0-1.63-.73-1.63-1.63s.73-1.63,1.63-1.63h4.88c.9,0,1.63.73,1.63,1.63v4.88c0,.9-.73,1.63-1.63,1.63s-1.63-.73-1.63-1.63v-.78l-10.17,11.63c-.3.34-.72.54-1.17.56-.46,0-.89-.16-1.2-.48l-7.79-7.79-4.15,15.21c-.15.56-.59,1-1.15,1.14-.56.15-1.16-.01-1.57-.42l-6.78-6.78-7.02,9.84c-.32.44-.82.68-1.33.68-.33,0-.66-.1-.94-.3-.73-.52-.9-1.54-.38-2.27l8.14-11.4c.28-.39.71-.64,1.19-.68.48-.04.95.13,1.29.47l6.16,6.16,4.15-15.21Z"/></svg>