<?xml version="1.0" encoding="UTF-8"?><svg id="Layer_1" xmlns="http://www.w3.org/2000/svg" xmlns:xlink="http://www.w3.org/1999/xlink" viewBox="0 0 168.25 168.18"><defs><style>.cls-1{fill:url(#linear-gradient);}.cls-1,.cls-2{stroke-width:0px;}.cls-2{fill:#f8f4f0;}</style><linearGradient id="linear-gradient" x1="84.12" y1="15.1" x2="84.13" y2="153.08" gradientUnits="userSpaceOnUse"><stop offset="0" stop-color="#2db4a0"/><stop offset="1" stop-color="#3cad4c"/></linearGradient></defs><circle class="cls-1" cx="84.12" cy="84.09" r="68.99"/><path class="cls-2" d="m125.18,49.36H44.85c-2.16,0-3.93,1.76-3.93,3.93v53.53c0,2.17,1.76,3.93,3.93,3.93h30.82l-2.77,10.04h-4.24c-2.11,0-3.83,1.72-3.83,3.83s1.72,3.83,3.83,3.83h32.71c2.11,0,3.83-1.72,3.83-3.83s-1.72-3.83-3.83-3.83h-4.24l-2.77-10.03h30.83c2.17,0,3.93-1.76,3.93-3.93v-53.53c0-2.17-1.76-3.93-3.93-3.93Zm-80.33,2.5h80.33c.79,0,1.43.64,1.43,1.43v45.11H43.43v-45.11c0-.79.64-1.43,1.43-1.43Zm57.85,72.75c0,.73-.6,1.33-1.33,1.33h-32.71c-.73,0-1.33-.6-1.33-1.33s.6-1.33,1.33-1.33h32.71c.73,0,1.33.6,1.33,1.33Zm-8.17-3.83h-19.03l2.77-10.03h13.49l2.77,10.03Zm30.65-12.53H44.85c-.79,0-1.43-.64-1.43-1.43v-5.92h83.19v5.92c0,.79-.64,1.43-1.43,1.43Zm-14.63-43.88v30.77c0,.69.56,1.25,1.25,1.25h7.56c.69,0,1.25-.56,1.25-1.25v-30.77c0-.69-.56-1.25-1.25-1.25h-7.56c-.69,0-1.25.56-1.25,1.25Zm2.5,1.25h5.06v28.27h-5.06v-28.27Zm-39.1,30.77h7.56c.69,0,1.25-.56,1.25-1.25v-20.33c0-.69-.56-1.25-1.25-1.25h-7.56c-.69,0-1.25.56-1.25,1.25v20.33c0,.69.56,1.25,1.25,1.25Zm1.25-20.33h5.06v17.83h-5.06v-17.83Zm18.93-8.97h-7.56c-.69,0-1.25.56-1.25,1.25v26.8c0,.69.56,1.25,1.25,1.25h7.56c.69,0,1.25-.56,1.25-1.25v-26.8c0-.69-.56-1.25-1.25-1.25Zm-1.25,26.8h-5.06v-24.3h5.06v24.3Zm-15.15-23.9c1.86,0,3.38-1.52,3.38-3.38,0,0,0-.02,0-.03l7.13-4.12c.58.46,1.31.74,2.11.74,1.25,0,2.35-.69,2.93-1.7l6.32,3.65c0,.07,0,.13,0,.19,0,1.86,1.52,3.38,3.38,3.38s3.38-1.52,3.38-3.38c0-.09,0-.18-.01-.27l7.25-4.41c.56.42,1.25.67,2,.67,1.86,0,3.38-1.52,3.38-3.38s-1.52-3.38-3.38-3.38-3.38,1.52-3.38,3.38c0,.2.02.4.06.59l-7.05,4.29c-.6-.53-1.38-.86-2.25-.86s-1.7.35-2.3.91l-7.1-4.1c-.44-1.35-1.71-2.33-3.21-2.33-1.86,0-3.38,1.52-3.38,3.38,0,.16.01.31.03.46l-6.86,3.96c-.61-.63-1.47-1.02-2.42-1.02-1.86,0-3.38,1.52-3.38,3.38,0,1.86,1.52,3.38,3.38,3.38Zm37.85-12.91c.49,0,.88.39.88.88s-.39.88-.88.88-.88-.39-.88-.88.39-.88.88-.88Zm-12.62,7.39c.49,0,.88.39.88.88s-.39.88-.88.88-.88-.39-.88-.88.39-.88.88-.88Zm-12.62-5.52c.49,0,.88.39.88.88s-.39.88-.88.88-.88-.39-.88-.88c0-.49.39-.88.88-.88Zm-12.62,6.78c.49,0,.88.39.88.88s-.39.88-.88.88-.88-.39-.88-.88.39-.88.88-.88Zm29.01,4.2h-7.56c-.69,0-1.25.56-1.25,1.25v23.96c0,.69.56,1.25,1.25,1.25h7.56c.69,0,1.25-.56,1.25-1.25v-23.96c0-.69-.56-1.25-1.25-1.25Zm-1.25,23.96h-5.06v-21.46h5.06v21.46Zm-48-15.8c5.61,0,10.18-4.56,10.18-10.17s-4.57-10.17-10.17-10.17-10.18,4.57-10.18,10.17,4.56,10.17,10.17,10.17Zm0-2.5c-1.66,0-3.2-.53-4.46-1.43l4.98-4.99h7.05c-.6,3.64-3.77,6.43-7.57,6.43Zm7.57-8.93h-5.94l1.54-5.74c2.29,1.04,3.99,3.18,4.41,5.74Zm-7.57-6.43c.25,0,.5.01.75.04l-1.87,6.99-5.11,5.12c-.91-1.26-1.45-2.81-1.45-4.48,0-4.23,3.44-7.68,7.68-7.68Zm9.06,25.85c0,.69-.56,1.25-1.25,1.25h-15.62c-.69,0-1.25-.56-1.25-1.25s.56-1.25,1.25-1.25h15.62c.69,0,1.25.56,1.25,1.25Zm0,5.77c0,.69-.56,1.25-1.25,1.25h-15.62c-.69,0-1.25-.56-1.25-1.25s.56-1.25,1.25-1.25h15.62c.69,0,1.25.56,1.25,1.25Z"/></svg>