<?xml version="1.0" encoding="UTF-8"?><svg id="Layer_1" xmlns="http://www.w3.org/2000/svg" xmlns:xlink="http://www.w3.org/1999/xlink" viewBox="0 0 168.25 168.18"><defs><style>.cls-1{fill:url(#linear-gradient);}.cls-1,.cls-2{stroke-width:0px;}.cls-3{fill:none;stroke:#f8f4f0;stroke-miterlimit:10;stroke-width:3.27px;}.cls-2{fill:#f8f4f0;}</style><linearGradient id="linear-gradient" x1="84.12" y1="15.1" x2="84.13" y2="153.08" gradientUnits="userSpaceOnUse"><stop offset="0" stop-color="#2db4a0"/><stop offset="1" stop-color="#3cad4c"/></linearGradient></defs><circle class="cls-1" cx="84.12" cy="84.09" r="68.99"/><path class="cls-2" d="m65.4,65.37c.8,0,1.44-.64,1.44-1.44,0-.55-.31-1.05-.8-1.29-1.46-.73-2.83-1.61-4.1-2.63,1.44-1.83,2.51-3.92,3.15-6.16h1.75c.8,0,1.44-.64,1.44-1.44s-.64-1.44-1.44-1.44h-5.76v-1.44c0-.8-.64-1.44-1.44-1.44s-1.44.64-1.44,1.44v1.44h-5.76c-.8,0-1.44.64-1.44,1.44s.64,1.44,1.44,1.44h9.63c-.53,1.52-1.3,2.95-2.29,4.22-.67-.66-1.28-1.38-1.83-2.14-.45-.66-1.34-.83-2-.39-.65.44-.83,1.33-.4,1.99.66.93,1.41,1.81,2.22,2.62-1.29,1.07-2.76,1.89-4.36,2.42-.76.25-1.16,1.07-.91,1.82.25.76,1.07,1.16,1.82.91h0c2.06-.68,3.97-1.76,5.6-3.19,1.49,1.21,3.11,2.26,4.82,3.11.2.1.42.15.64.14Z"/><path class="cls-2" d="m61.08,76.89c.8,0,1.44-.64,1.44-1.44v-4.32h10.08c2.39,0,4.32-1.93,4.32-4.32v-20.16c0-2.39-1.93-4.32-4.32-4.32h-25.92c-2.39,0-4.32,1.93-4.32,4.32v20.16c0,2.39,1.93,4.32,4.32,4.32h2.54l11.22,5.62c.2.1.42.15.64.14Zm-1.44-7.2v3.43l-9.44-4.72c-.2-.1-.42-.15-.64-.15h-2.88c-.8,0-1.44-.64-1.44-1.44v-20.16c0-.8.64-1.44,1.44-1.44h25.92c.8,0,1.44.64,1.44,1.44v20.16c0,.8-.64,1.44-1.44,1.44h-11.52c-.8,0-1.44.64-1.44,1.44Z"/><path class="cls-2" d="m121.57,48.09h-25.92c-2.39,0-4.32,1.93-4.32,4.32v20.16c0,2.39,1.93,4.32,4.32,4.32h.75l-2.09,5.23c-.3.74.05,1.58.79,1.88.39.16.82.14,1.19-.05l14.1-7.06h11.18c2.39,0,4.32-1.93,4.32-4.32v-20.16c0-2.39-1.93-4.32-4.32-4.32Zm1.44,24.48c0,.8-.64,1.44-1.44,1.44h-11.52c-.22,0-.44.05-.64.15l-11.01,5.51,1.47-3.69c.3-.74-.06-1.58-.8-1.87-.17-.07-.35-.1-.53-.1h-2.88c-.8,0-1.44-.64-1.44-1.44v-20.16c0-.8.64-1.44,1.44-1.44h25.92c.8,0,1.44.64,1.44,1.44v20.16Z"/><path class="cls-2" d="m121.57,97.05h-25.92c-2.39,0-4.32,1.93-4.32,4.32v4.32h-4.32c-.8,0-1.44.64-1.44,1.44,0,.25.07.5.19.72l5.57,9.74v3.94c0,2.39,1.93,4.32,4.32,4.32h25.92c2.39,0,4.32-1.93,4.32-4.32h0v-20.16c0-2.39-1.93-4.32-4.32-4.32Zm1.44,24.48c0,.8-.64,1.44-1.44,1.44h-25.92c-.8,0-1.44-.64-1.44-1.44v-4.32c0-.25-.06-.5-.19-.72l-4.53-7.92h3.28c.8,0,1.44-.64,1.44-1.44v-5.76c0-.8.64-1.44,1.44-1.44h25.92c.8,0,1.44.64,1.44,1.44v20.16Z"/><path class="cls-2" d="m109.9,54.64c-.42-.71-1.35-.94-2.06-.52-.21.13-.39.31-.52.52l-7.2,14.4c-.36.71-.07,1.58.65,1.93.71.36,1.58.07,1.93-.65l5.9-11.82,2.71,5.42h-2.71c-.8,0-1.44.64-1.44,1.44s.64,1.44,1.44,1.44h4.15l1.76,3.52c.36.71,1.22,1,1.93.65.71-.36,1-1.22.65-1.93h0l-7.19-14.4Z"/><path class="cls-2" d="m114.37,117.21h-7.2c-1.59,0-2.88-1.29-2.88-2.88s1.29-2.88,2.88-2.88h5.76c.8,0,1.44-.64,1.44-1.44s-.64-1.44-1.44-1.44h-2.88c-.8,0-1.44-.65-1.43-1.45s.65-1.44,1.45-1.43c.54,0,1.04.31,1.28.8.36.71,1.22,1,1.93.64.71-.36,1-1.22.64-1.93-1.11-2.11-3.72-2.93-5.83-1.82-1.92,1.01-2.79,3.27-2.05,5.31-3.12.63-5.13,3.67-4.5,6.79.54,2.68,2.9,4.61,5.63,4.61h7.2c.8,0,1.44-.64,1.44-1.44s-.64-1.44-1.44-1.44Z"/><path class="cls-3" d="m71.5,108.17,1.39,0l-9.52,16.44h-.69s-9.54-16.56-9.57-16.61c0-1.9,0-19.19,0-19.19h1.19l8.7,14.96,8.7-14.96h1.17l.03,19.36Zm-19.75-.34,1.19.23"/></svg>