<?xml version="1.0" encoding="UTF-8"?><svg id="Layer_1" xmlns="http://www.w3.org/2000/svg" viewBox="0 0 862.17 401.17"><defs><style>.cls-1{fill:#003f3d;stroke-width:0px;}</style></defs><g id="XslC9a"><path class="cls-1" d="m489.15,33.43c-.07-.21-.14-.43-.22-.64-2.32.96-4.64,1.92-6.95,2.88.59.47,1.21.76,1.61.58,1.89-.87,3.71-1.87,5.56-2.82Zm6.78-.27q3.65.98,5.02-.65c-1.62.94-3.5-1.94-5.02.65Zm13.72.7c-1.85-1.76-2.49-1.61-4.04,1.01,1.24-.31,2.48-.62,4.04-1.01Z"/><path class="cls-1" d="m444.62,113.63c.73-2.02,2.62-2.18,4.52-2.45-1.44-1-2.63-1.82-3.89-2.69-1.6.44-3.42,1.01-5.28,1.42-2.67.59-2.68.53-7.11-1.25.1-1,.25-2.04.29-3.09.02-.43-.06-.99-.33-1.28-1.04-1.13-.39-2.11.37-2.81,1.46-1.33,3.1-2.44,4.65-3.67.3-.24.54-.57.75-.91.38-.62.71-1.26,1.06-1.89.27.02.54.03.8.05-.3-.74-.39-1.87-.93-2.16-1.7-.91-2.3-2.2-2.09-4.11-.08,1.64-.09,3.1-2.4,2.98-.6-.03-1.47,1.01-1.84,1.75-1,1.97-2.1,3.66-3.91,5.17-1.27,1.05-2.98,2.28-3.65,3.67-.88,1.84-.66,4.22-.77,6.38-.01.21,1.04.41,1.53.73,1.77,1.18,1.17,3.87-1.11,5.05-1.62.84-2.2,4.95-.86,6.04-1.6,1.77-4.94,1.07-5.48,4.69-1.61-3.79-2.95-6.93-4.34-10.22.31-.14.84-.38,1.37-.62-.2-.12-.4-.24-.6-.36-.63-.67-1.26-1.34-1.83-1.95-1.87,1.6-3.8,3.25-5.8,4.96-1.16-.83-2.27-1.61-3.19-2.26.37-.74.69-1.38,1.15-2.29-1.04.18-1.73.3-2.59.44.02-2.01,3.53-.78,2.74-3.33-.9.2-1.82.4-2.6.57.43-1.2.75-2.27,1.21-3.28.29-.64.71-1.25,1.19-1.77.82-.9,2.23-1.43,1.81-3.15,3.83.38,5.22-3.27,8.09-4.81-.31-.48-.61-.95-.98-1.52,1.65-.22,2.05-1.15,2.24-2.74.14-1.17,1.42-2.2,2.18-3.3.75-1.08,1.61-2.1,2.18-3.27.71-1.46,1.48-2.46,3.26-1.57.04-2.12-.29-2.33-1.99-1.56-.57.26-1.23.3-2.33.55.71-.83,1.07-1.28,1.45-1.71.36-.41.74-.79.97-.7,1.2.39,2.4.79,3.6,1.18.12-.23.23-.46.35-.7-.61-.36-1.23-.72-1.86-1.09.25-.4.56-.91.88-1.43q1.3,1.15,2.87-1.03c.76.47,1.7,1.05,2.63,1.63.24-.13.48-.26.72-.4.06-.64.11-1.28.17-1.89h4.57c.19-.53.4-1.82.72-1.85,1.59-.13,2.52-1.39,4.09-2.21-.81,1.42-1.43,2.51-2.05,3.59l.67.39c.66-.81,1.33-1.62,2.12-2.59.22.52.37.86.63,1.46.78-.59,1.5-1.14,2.32-1.76.26.57.49,1.08.73,1.61,1.97-2.05,2.79-2.04,4.97.36-1.33.23-2.4.41-3.53.6.31.35.78.71,1,1.19.18.39.08.92.1,1.39-.38-.25-.77-.5-1.09-.71.02.35.06.9.11,1.75,1.01-.82,1.9-1.54,2.71-2.2,2.34.26,4.11,2.28,6.7,1.79.76-.14,1.68.95,2.56,1,2.4.14,3.96,1.44,5.33,3.2.24.31.71.44,1.08.63,1.42.71,2.84,1.41,4.7,2.33-2.72,1.98-4.28,4.73-7.9,3.11-2.02-.9-4.36-1.07-6.49-1.76-.81-.26-1.43-1.09-2.19-1.57-.3-.19-.76-.13-1.14-.18,0,.43-.19,1.07.03,1.25,1.21,1.06,2.45,2.1,3.81,2.96.86.55,1.3.86.64,1.92-.86,1.37.67,4.16,2.22,4.64,1.03.31,1.91,1.08,2.91,1.49.76.31,1.72.69,1.95-.71.18-1.1-.21-1.52-1.37-1.59-.49-.03-.99-.72-1.37-1.21-.09-.11.32-.87.48-.86.53.02,1.06.23,1.58.41,1.36.48,2.69,1.03,4.07,1.43.36.1.86-.25,1.29-.4-.16-.37-.22-.81-.48-1.09-1.11-1.18-.6-2.1.41-2.94.74-.61,1.56-1.14,2.32-1.73,1.57-1.23,2.47-1.03,3.38.76.13.25.33.45.53.71,2.09-3.11,2.05-3.48-.04-4.44.21-1.11.37-2.1.61-3.07.12-.49.34-1.31.59-1.35.79-.1,1.66-.03,2.4.25.49.19.8.85,1.31,1.42-.29.12-.47.25-.66.27-1.15.07-2.42.19-2.22,1.73.17,1.3.96,2.34,2.47,2.42.91.05,1.82,0,2.84,0,.13-1.62.67-2.53,2.31-2.99,1.55-.43,2.88-1.66,4.3-2.53.72-.44,1.42-.98,2.22-.05.09.11.81-.16,1.08-.42.56-.52,1.02-1.16,1.52-1.75.21.17.41.33.62.5-.46.62-.92,1.24-1.42,1.91,1.03,1.81,2.19,1.93,3.5.18.7-.93,1.4-1.56,2.56-.67.92.7,1.54.46,2.29-.43.56-.66,1.58-.93,2.39-1.38.12.16.23.33.35.49-.2.4-.4.79-.67,1.32.69.35,1.37.7,1.86.95.95-.89,1.75-1.62,2.57-2.39-.56-1.02-1.17-2.11-1.77-3.21-.84-.35-1.76-.74-2.69-1.13.06-.17.12-.34.19-.52.4.04.85-.02,1.2.13,1.91.84,3.8,1.74,5.71,2.61.22.1.48.19.7.16,3.81-.46,6.63,1.69,9.55,3.58.45.29.95.5,1.47.77.39-.61.71-1.1,1.16-1.81-1.3-1.41-2.61-2.83-3.92-4.25-.07.12-.14.23-.22.35.05-.91-.01-1.85.17-2.74.13-.59.48-1.26.94-1.63,2.14-1.73,4.27-3.28,5.06-6.26.44-1.64,2.42-.92,3.73-.66,1.44.29.92,1.28.52,2.13-.51,1.08-1.02,2.16-1.58,3.33.46.36,1.11.64,1.34,1.12.35.74.78,1.75.53,2.41-1.09,2.89-.82,4.88,1.19,7.03-1.09,1.72-2.26,3.35-3.18,5.12-.36.7-.27,1.7-.16,2.54.03.21,1.23.57,1.43.38,1.41-1.32,2.77-2.69,3.98-4.19.84-1.05,1.47-2.29.59-3.72-.13-.21.09-.91.15-.91,1.12-.01,2.27-.05,3.36.17.29.06.46.95.58,1.49.2.88.13,1.87.51,2.65.72,1.47,2,1.59,3.29.32-.42-.27-.79-.53-1.18-.77-.97-.6-1.62-1.23-.93-2.53.22-.42.04-1.39-.32-1.72-1.7-1.56-3.62-2.49-5.96-1.31-.26.13-.56.18-1.02.32-.06-1.57-.74-2.98.63-4.33.34-.34.15-1.5-.14-2.13-.37-.79-1.08-1.42-1.67-2.14,1.06-1.7,4.35-1.79,3.18-4.94l.64.02c.12.57.34,1.14.33,1.71-.02.92-.22,1.84-.28,2.76-.02.27.13.72.33.8,2,.81,4.02,1.56,6.03,2.33.09-.18.18-.36.26-.54-1.61-1.12-3.23-2.23-4.84-3.35.11-.21.22-.42.33-.63,1.16.46,2.32.92,3.65,1.44,1.05-2.37-1.69-1.96-2.26-3.18.21-.16.52-.52.65-.47,1.91.78,4.3-.04,5.9,1.78.48.54,1.04,1.17,1.68,1.35.52.15,1.55-.13,1.75-.52.34-.68.55-1.69-.83-1.89-1.37-.2-2.24-.85-2.44-2.44-.2-1.55,0-1.85,1.63-1.74.97.06,1.97-.23,2.96-.38,1.68-.26,3.35-.6,5.04-.81,1.26-.16,2.02-.55,1.98-2.03-.06-1.97.71-3.24,2.95-3.59,1.39-.22,2.75-1,3.99-1.76,2.21-1.37,4.42-1.44,6.84-.67.77.24,1.76.02,2.58-.23.61-.19,1.04-.97,1.64-1.11.84-.21,2.21-.44,2.56,0,.79.95.29,2.11-.76,2.8-.61.39-1.35.57-1.97.95-.59.35-1.55.84-1.54,1.25.01.72.5,1.82,1.05,2.03.6.22,1.64-.22,2.26-.68,1.1-.81,2.18-1.73,3-2.81,1.54-2,1.42-3.09.16-4.66.42-.8.79-1.37,1.03-1.99,1.16-2.97,4.79-5.71,8.27-2.92q-2.57,1.06-2.43,1.79c1.56.15,3.05.28,4.68.44-.37.7-.69,1.3-1.09,2.06,1.5.06,2.85.81,3.96-.66.22-.29.95-.42,1.35-.29,2.62.82,5.7.48,7.67,2.99.21.27.59.41.77.53-.15.71-.28,1.35-.41,2-.51.36-1.1.87-1.77,1.23-3.11,1.7-6.18,3.48-9.39,4.98-1.88.88-3.44,2.56-3.2,3.94,3.01-.97,6.05-1.95,9.26-2.98-.54-.38-.99-.69-1.48-1.03,1.52-1.36,2.77-.25,3.68.59,1.13,1.04,1.72.79,2.52-.75,0,1-.1,1.55.04,2.03.1.33.5.62.84.81.07.04.62-.42.63-.65,0-1.13.68-.91,1.46-1.03,3.07-.47,5.56,1.25,8.33,1.92,1.46.35,2.97.6,4.46.72,1.19.1,2.4-.08,3.73-.14.04-.39.09-.9.16-1.56,2.1-.24,3.82.53,5.53,1.46.58.32,1.29.41,1.94.61.66.21,1.52.25,1.9.69.25.29-.21,1.18-.45,2.25,1.97,1.31,2.82,4.72,6.13,5.28.58-.98,1.03-1.88,1.64-2.65.21-.27.88-.33,1.29-.24.83.18,1.64.48,2.43.81,3.31,1.37,6.53.19,9.75-.38.47-.08.84-.67,1.11-.9-.26-1.2-.49-2.25-.76-3.53.72-.05,1.42-.11,2.2-.17.1-.4.21-.84.24-.99,3.43-.67,5.83,1.24,8.33,3.01-.27.13-.68.31-1.08.5,1.05.2.73,2.81,2.41,1.44.78-.64,1.23-1.69,1.89-2.63.98,2.13,2.66,2.04,4.88.68-.32.75-.43,1.01-.64,1.49,1.53.46,3.04.9,4.55,1.37.17.05.4.16.45.3.71,1.99,2.4,1.35,3.83,1.49,3.33.33,6.65.7,9.97,1.1.45.05.88.35,1.25.52v2.98c.83-.07,1.4-.13,1.98-.18.25.89.48,1.69.77,2.71,1.78-2.58,3.76-3.1,6.52-1.68,1.99,1.02,3.83,1.27,5.96.41.62-.25,1.63.39,2.42.7.61.24,1.16.86,1.74.86.75,0,1.52-.42,2.27-.66-.3-.61-.47-1.33-.92-1.8-.78-.82-1.28-1.5.04-2.47,2.81,2.72,6.08,2.2,9.53,1.48,1.26-.26,2.81.27,4.07.83,1.5.66,2.83,1.72,4.22,2.62.14.09.34.26.34.39.05,2.87,2.25,3.18,4.31,3.63.54.12,1.1.29,1.63.23,1.79-.2,2.49.56,2.69,2.33.19,1.75.98,2.04,2.39,1.2-.19-.56-.39-1.13-.61-1.77,2.01.83,3.85,1.47,5.56,2.35.7.36,1.14,1.24,1.69,1.88-.14.13-.29.27-.43.4h-4.24c.27.84.75,1.66.7,2.44-.04.55-.8,1.06-1.5,1.91-.14-.08-.65-.42-1.2-.69-.67-.33-1.38-.57-2.05-.91-.46-.23-1.06-.46-1.26-.87-.72-1.4-1.84-1.56-3.24-1.45-.76.06-1.54-.26-2.05-.35.11-1.23.18-1.94.25-2.64-1,.32-2.05.55-2.95,1.05-.15.09.33,1.32.62,2.37-.53.11-1.31.23-2.06.43-.77.2-1.52.53-2.3.7-.44.1-.94-.07-1.4-.04-.71.05-1.41.17-2.11.27.23.57.38,1.19.69,1.7.91,1.47,1.84,2.94,2.86,4.33.44.6,1.13,1.03,1.81,1.62-.09.19-.26.56-.43.91-1.21-.48-2.32-.92-3.47-1.38-1.64,1.29-3.22,2.34-5.45,2.7-2.83.46-5.04,2.55-7.18,4.48-.37.33-1.25.58-1.62.38-2.51-1.38-3.39-1.34-5.31.53-.57-.42-1.13-.84-1.8-1.34-.85,1.28-1.73,2.21-3.34,1.48-.23-.11-.89.45-1.19.83-.91,1.12-1.85,2.25-2.57,3.49-.41.71-.67,1.7-.51,2.46.09.42,1.18.63,1.87.95-.15.4-.55,1.01-.54,1.61,0,.54.47,1.07.77,1.69-1.52,1.06-3.33,2.25-5.05,3.56-1.23.94-1.59,2.32-1.17,3.78.35,1.21.1,1.91-1.22,2.03-1.25.11-1.55.81-1.8,1.99-.26,1.21-1.17,2.29-1.97,3.73-2.08-3.12-.64-5.9-.63-8.56,0-1.61.66-3.27,1.23-4.82.67-1.8-1.46-1.62-1.64-3.07.47-2.05,2.71-2.68,4.37-3.98,2.13-1.67,3.99-3.69,5.96-5.57.26-.25.43-.7.73-.8,2.32-.76,3.55-2.24,3.77-4.75.05-.6,1.21-1.1,1.99-1.75-.58-1.1-1.85-.9-2.87-.65-.55.14-1.11.99-1.32,1.63-.3.95-.65,1.56-1.7,1.86-.71.21-1.34.85-1.89,1.4-.89.89-1.71,1.07-2.83-.26.33-.21.97-.41.98-.65.02-.48-.31-1.41-.48-1.4-1.89.05-3.78.23-5.67.39-.11,0-.3.07-.32.15-.5,2.01-2.45,2.58-3.73,3.81-1.71,1.66-1.65,1.72-.52,3.82-1.67.11-3.31.22-5.15.35-.13-.3-.37-.85-.47-1.08-1.05-.51-1.88-.88-2.68-1.32-1.1-.6-1.99-.48-2.63.66-.2.36-.33.76-.55,1.27-1.44-.81-2.83-1.78-4.22-.08-.15.18-.92.09-1.19-.13-1.76-1.47-3.88-.77-5.83-1.06-.38-.06-.92.08-1.19.33-1.32,1.23-2.53,2.57-3.85,3.8-.94.88-2.09,1.54-2.95,2.48-1.82,1.96-3.47,4.06-5.27,6.04-.98,1.08-.88,1.69.47,2.31.39.18.67.62.96.97.33.4.61.83.92,1.24.32-.34.63-.68,1.01-1.08.21.74.41,1.44.6,2.13.35-.07.5-.05.58-.12.89-.85,1.29-2.64,3.04-1.93,1.86.75,3.24,3.61,2.34,5.32-.96,1.83-1.26,3.67-1.04,5.58.3,2.55-.96,4.32-2.44,6.11-.61.74-.89,1.75-1.5,2.49-1.97,2.39-4.07,4.67-6.03,7.08-1.58,1.94-3.02,3.23-5.79,1.66-1.26-.71-2.74.54-3.06,2.04-.52,2.4-2.16,3.74-4.01,5-2.94,2-3.02,2.53-.84,5.29.51.64,1.24,1.12,1.71,1.78.4.56.66,1.26.82,1.93.19.78.2,1.6.26,2.19-1.62,1.02-3.28,2.06-5.39,3.39.13-1.48.21-2.44.29-3.39.18-.01.36-.03.53-.04-.32-.43-.65-.85-1.04-1.37,3.61-1.51-.89-2.36-.12-3.63-1.18-.11-2.2-.21-3.63-.35.5-.72.59-.95.76-1.07,2.15-1.61.44-2.71-.57-3.81-.22-.24-1-.16-1.41.03-.77.35-1.46.89-2.18,1.35-.66.42-1.31.85-1.96,1.27-.17-.1-.34-.2-.51-.3.4-.72.7-1.52,1.21-2.15.59-.73,1.53-1.51.39-2.21-.58-.35-1.74.06-2.56.35-.75.26-1.42.79-2.07,1.28-.41.31-.67.81-1.06,1.15-.55.48-1.15.91-1.75,1.35-.47.34-.96.66-1.44.99.4.51.77,1.04,1.19,1.54.43.5,1.01.9,1.32,1.46.47.87,1.29,1.37,1.86.66,1.79-2.26,3.28-.21,4.68-.15-1.7,1.14-3.43,2.26-5.14,3.43-1.33.91-1.36,2.01-.29,3.23.71.8,1.29,1.72,1.86,2.63.34.55.45,1.27.85,1.74.4.47,1.05.73,2.04,1.37-1.3-.35-2.05-.56-2.81-.77-.21.26-.41.52-.62.78,1.02.6,2.03,1.19,3.11,1.82-1.02.78-1.65,1.26-2.29,1.75.07.15.15.3.22.45.57.09,1.15.18,1.72.27.35,2.22-1.1,4.58-3.17,5.12-1.57.41-2.71,1.13-2.55,2.99.01.12-.06.24-.04.36.25,2.54-1.05,3.83-3.37,4.6-1.1.36-1.97,1.39-3.03,1.94-.57.3-1.41.48-1.99.29-1.59-.5-2.04.88-2.93,1.54-.56.41-1.06.94-1.66,1.27-1.06.56-2.19,1-3.28,1.49v-1.2c-2.31-1.56-4.08.06-5.93.77-1.47.56-2.73,4.58-1.83,5.86,1.35,1.93,2.97,3.68,4.39,5.56.58.77,1.18,1.65,1.36,2.56.24,1.24.16,2.56.05,3.84-.21,2.4-1.51,3.74-3.87,4.32-.41.1-.83.49-1.07.86-.4.61-.66,1.32-1.07,1.91-1.5-1.52-1.9-2.85-3.52-3.1-.71-.11-1.26-1.27-1.89-1.95-.99-1.06-1.88-2.26-3.03-3.12-1.57-1.18-2.95-.35-3.13,1.63-.11,1.26-.46,2.49-.63,3.74-.14,1.08-.71,2.2.77,3.03.58.33.93,1.44,1,2.23.1,1.08,0,2.08,1.38,2.42.15.04.16.69.24,1.06-.14,0-.27,0-.41,0-1.64-1.3-3.52-2.41-4.83-3.98-1.08-1.29-.45-2.97.42-4.44.36-.62.29-1.49.09-2.31,1.51-1.4.27-3.11-.37-3.87-1.27-1.52-.89-3.21-1.33-4.79-.31-1.09-.67-2.17-.98-3.15-1.05.84-1.77,1.47-2.56,2.02-.31.21-.86.41-1.11.28-.27-.15-.54-.78-.44-1.06.85-2.31-1.11-4.05-1.19-6.17-.01-.37-.56-.77-.93-1.06-2.41-1.87-3.52-4.19-2.65-7.27.12-.41-.07-.91-.16-1.74-.77,1.44-1.24,2.67-2.01,3.66-.45.57-1.36,1.03-2.1,1.08-1.89.14-3.75.14-4.76,2.18-.14.28-.54.63-.81.62-3.58-.12-4.81,2.64-6.29,5.08-.5.83-.82,1.79-1.37,2.59-.51.74-1.11,1.64-1.88,1.93-1.73.67-2,1.89-1.97,3.47.03,1.53-.14,3.06-.08,4.59.14,3.43-1.4,5.96-3.88,7.91-1.62-2.84-3.45-5.57-4.77-8.53-.91-2.03-1.11-4.38-1.66-6.58-.21-.85-.56-1.68-.76-2.53-.48-1.99-.95-3.99-1.34-6-.28-1.42-.37-2.88-.67-4.3-.07-.35-.64-.6-.98-.89-.22.33-.48.65-.64,1-.33.76-.61,1.54-1.07,2.72-1.53-1.13-2.8-2.08-4.37-3.24,1-.3,1.61-.41,2.14-.67.39-.19.68-.58,1.01-.87-.41-.28-.91-.88-1.21-.79-1.46.42-1.99-.71-2.96-1.29-1.1-.66-1.76-1.09-2.16-2.44-.27-.91-1.63-1.72-2.68-2.11-.9-.33-2.11-.23-3.06.07-2.6.81-5.01.32-7.44-.62-1.72-.67-3.51-1.24-5.08.89-.37-.76-.66-1.39-.97-2.01-.85-1.74-1.75-1.93-3.49-1.09-.75.36-1.85.54-2.58.26-2.3-.89-4.38-2.19-5.62-4.47-.2-.38-.4-.76-.62-1.13-1.51-2.59-2.74-3.02-5.54-1.95-2.07.56-2.18,1.67-.35,3.68,1.93,1.68,4,3.21,4.35,6.09.11.87.79,1.72,1.35,2.47.81,1.08,1.76,2.06,2.65,3.09,1.27,1.24,2.81,1.59,4.54,1.46,1.16-.09,2.09.31,2.15,1.66.07,1.64-1.49,3.88-3.04,4.46q-3.85,1.42-2.48,5.11c.27,1.18-1.66,3.36-2.98,3.1-1.53-.31-2.24.54-3.06,1.48-.51.58-1.04,1.31-1.72,1.56-3.08,1.13-6.21,2.12-9.72,3.29-.54-2.9-1.03-5.57-1.51-8.15.13-.14,0,0,.1-.11-.78-1.15-1.66-2.32-2.38-3.59-.44-.78-.36-2.13-.95-2.48-2.72-1.62-2.9-4.44-3.7-6.99-.16-.51-.53-.96-.83-1.42-1.98-3.05-4.08-6.02-5.9-9.17-.64-1.11-.81-2.64-.78-3.96.04-1.22-.49-2.07-1.02-2.99-.09-.06-.17-.14-.25-.21.11-1.08-.11-2.36,1.46-2.63.34-.13.91-.18.98-.41.58-1.69,1.06-3.41,1.57-5.12-.18-.86-.45-1.71-.53-2.59-.09-.94-.02-1.9-.02-3.19-1.65.57-2.96,1.2-4.33,1.43-.94.16-2.01-.15-2.96-.43-.91-.27-1.76-.77-2.61-1.16-1.45,2.3-2.06,2.37-3.82.74-1.41-1.31-2.9-2.54-4.46-3.91,1.33-1.56,1.65-2.88-.53-3.81.07-.14.13-.28.2-.42.71-.09,1.41-.24,2.13-.27,1.39-.07,2.81.08,3.72-1.4.18-.29.87-.26,1.32-.38,1.31-.36,2.75-.48,3.89-1.13,1.97-1.14,3.87-1.39,5.93-.51,1.23.53,2.45,1.1,3.66,1.67,2.29,1.08,4.47.81,6.64-.38.88-.48,1.86-.77,2.82-1.16-.8-3.07-4-4.04-6.11-6.06-.96-.92-2.26-1.5-3.61-2.37.86-.84,1.67-1.54,2.34-2.35.21-.25.03-.81.03-1.64.32-.23,1.09-.79,1.94-1.41-.8-1.01-1.51-1.41-2.82-.63-1.31.78-2.88,1.13-4.28,1.79-.72.34-1.31.95-2.23,1.64,1.39.88,2.45,1.55,3.41,2.16-1.44.52-3.02,1.08-4.43,1.59-.54-.8-1.09-1.61-1.75-2.58.54-.24,1.23-.55,1.93-.86.02-.1.09-.3.07-.32-1.56-.75-3.1-1.56-4.72-2.15-.33-.12-1.03.5-1.44.9-.84.79-1.59,1.69-2.42,2.49-.19.19-.56.18-.91.28.36.31.67.58.88.76-.57.8-1.04,1.58-1.63,2.25-.25.29-.77.34-1.16.51-1.07.07-2.2-.06-3.19.24-5.16,1.57-6.24.01-9.11-3.78-1.57-2.07-2.62-2.52-4.97-.95-.58-.14-1.45-.1-1.69-.47-1.5-2.35-2.51-.84-3.6.34l-1.24,1.34c-1.91,0-2.85-.86-3.07-2.48-.45.85-1.26,1.9-1.52,3.07-.17.77.26,1.88.79,2.55.94,1.22,2.13,2.12,2.37,3.91.11.82,1.49,1.55,2.41,2.15,1.48.96,3.07,1.76,4.58,2.68.33.2.52.66,1.05,1.38-1.66-.44-2.94-2.26-3.89.03,1.4,1.56,1.06,3.02-.98,4.31.1-1.03.34-2.07.26-3.09-.16-2.08-2.1-2.76-3.47-3.64-2.8-1.8-5.07-3.95-6.62-6.92-.99-1.9-2.24-2.12-4.11-1.09-.87.48-1.69.92-2.32,1.81-1.17,1.65-1.94,1.7-3.38.3-.85-.82-1.46-1.03-2.53-.44-1.13.62-2.14,1.4-1.68,2.64.61,1.64-.4,1.95-1.41,2.54-1.28.74-2.55,1.52-3.7,2.43-.46.36-.95,1.23-.82,1.71.41,1.48-.02,2.81-.91,3.73-1.18,1.22-2.64,2.24-4.15,3.01-1.25.63-2.73.86-4.14,1.07-.75.11-2.03.04-2.25-.38-.9-1.75-2.06-1.54-3.46-.88-.21.1-.46.1-.97.21-.04-.84-.06-1.59-.12-2.34-.04-.53.05-1.35-.25-1.55-1.63-1.08-.57-2,0-3.04.64-1.17,1.24-2.38,1.72-3.63.66-1.72.07-3.09-1.53-4.08.68-1.25,1.37-2.16,2.86-.91.26.22.83.08,1.26.08,3.22,0,6.45,0,9.62,0,.36-.77.87-1.84,1.35-2.93.17-.38.42-.83.34-1.18-.52-2.27-1.57-4.34-3.01-6.12-.44-.54-1.55-.75-2.35-.76-1.43-.01-2.19-.52-2.19-2.17h6.23c-.3-1.07-.54-1.93-.77-2.76.96.34,2.21,1.21,2.77.89,1.44-.82,3.64-.91,3.93-3.19.19-1.45.92-1.54,1.99-.81.81.64,1.65,1.23,2.42,1.92,1.03.93,2.08,1.56,3.38.53,1.24-.98.5-2.07.1-3.12.7-1.62,1.4-3.24,2.11-4.86.19-.74.38-1.49.59-2.33.32.08.6.15.87.22.49.12,1.33.46,1.41.33.36-.59.77-1.34.68-1.96-.41-2.62-.99-5.22-1.58-8.18,2.59,1.54,2.38-1.46,3.73-1.63.06,1.08.12,2.18.2,3.67-.16.2-.64.8-1.14,1.42.65.37,1.17.67,1.69.97-.05.11-.09.22-.14.33h-1.8c-.28,1.44.67,1.87,1.58,2.81,1.75,1.8,2.89.63,4.36.07,1.26-.48,2.24.43,2.47,1.86.77-.39,1.62-.82,2.47-1.25.37-.19.78-.31,1.09-.57,1.89-1.62,3.39-1.59,5.06.13.06.07.23.03.46.06.35-.62.72-1.27,1.13-2,.9.48,1.69.9,2.48,1.31.6.03,1.21.15,1.8.07.51-.07.99-.35,1.49-.54-.29-.49-.49-1.12-.91-1.45-.5-.39-1.19-.51-1.8-.75-.64-2.02-1.48-3.99.28-5.97.88-.99,1.45-.76,2.25-.07.52.45,1.44,1.24,1.65,1.1.63-.42,1-1.24,1.47-1.9-.09-.16-.18-.33-.27-.49h1.95c.34.14.68.28,1.02.41,2.29.87,3.22.16,3.07-2.25-.04-.64.18-1.3.29-1.95Zm39.21,34.29c-.46.62-1.03,1.49-1.71,2.28-.64.74-1.48,1.3-2.05,2.08-.29.39-.32,1.12-.2,1.63.21.97.57,1.92.96,2.83.44,1.03.86,2.11,1.51,3,2.39,3.26,4.01,4.71.86,8.2-.26.29-.14,1.37.18,1.66,1.1.98,2.3,1.89,3.59,2.61,1.07.6,2.29,1.07,3.5,1.27,1.43.25,3.17-1.23,3.27-2.42.23-2.65-.88-4.75-2.99-7.02,1.69-.33,3.1-.6,4.8-.93-1.09-1.57-2.12-3.06-3.34-4.82-.39,1.1-.61,1.71-.84,2.35-.09-.93-.08-2.36-.25-2.38-2.37-.3-2.68-2.74-4.4-3.8.66-.22,1.15-.33,1.58-.55.67-.35,1.26-.97,1.96-1.16,1.28-.34,3.13-2.04,2.78-3.03-.47-1.33-1.25-2.31-3.04-2.31-1.78,0-3.45-.27-4.72,1.38-.22.29-.84.28-1.32.43-.07-.73-.13-1.29-.13-1.32Zm113.86-22.41c-.45-.6-.76-1.28-1.3-1.62-.22-.14-1.09.37-1.35.79-1.05,1.64-1.74,3.57-3.02,4.98-1.66,1.83-3.24,3.87-5.64,4.92-.37.16-.54.78-.8,1.19.42.14.85.41,1.26.39.6-.03,1.27-.14,1.75-.46,1.46-.96,2.82-2.08,4.27-3.06.61-.42,1.68-.47,1.97-1,1.06-1.9,1.87-3.94,2.87-6.13Zm-89.56,23.91c-1.46-1.66-2.15-1.59-3.36.24-.16.24-.58.31-.89.43-1.59.58-3.18,1.14-4.58,1.63,1.14.84,2.08,1.54,2.98,2.2.16-.37.42-.98.65-1.52.38,1.19.73,2.29,1.09,3.38.94-.47,2.44-.76,2.67-1.47.34-1-.26-2.31-.53-3.89.33-.17,1.15-.59,1.96-1.02Zm33.43-.06c-.05-.33-.1-.67-.16-1-3.52.16-7.2-1.17-10.71,1.45,1.32.91-.55,3.16,1.84,3.68.11-.34.24-.56.24-.78,0-1.9.95-2.73,2.84-2.6,1.03.07,2.08.12,3.1,0,.96-.12,1.89-.48,2.83-.74Zm-.88,29.89c.3.03.6.06.91.1.54-.92,1.33-1.79,1.49-2.77.06-.39-1.21-1.16-1.98-1.45-.34-.13-1.42.59-1.38.79.19,1.14.62,2.23.97,3.34Z"/><path class="cls-1" d="m223.83,221.94c-1.64,1.03-3.54.38-5.16-1.28-1.25-1.28-2.79-2.34-4.37-3.18-.52-.27-1.7.3-2.35.78-.96.7-1.53.75-2.25-.28-.41-.58-1.08-1.11-1.74-1.36-1.65-.62-3.37-1.07-5.07-1.59-1.79-.55-3.45-1.29-4.31-3.13-.1-.22-.26-.5-.46-.56-2.43-.8-2.65-3.03-3.4-4.99-.9-2.36-2.21-4.5-4.53-5.82-.21-.12-.42-.26-.56-.45-.71-.93-1.41-1.88-2.32-3.1.7-1.13-.09-1.8-1.53-2.54-1.1-.56-1.85-1.77-2.79-2.65-.64-.59-1.35-1.11-1.61-1.32-.54-1.96-.98-3.54-1.42-5.12.12-.05.24-.11.36-.16-.14-.11-.27-.28-.43-.32-1.05-.25-2.11-.47-3.17-.7.2,1.45-.12,3.44.7,4.24,1.58,1.52,2.37,3.39,3.46,5.12,1.69,2.66,3.31,5.37,4.94,8.07.16.27.12.65.24,1.43-1.73-1.61-3.21-2.69-3.87-4.78-.37-1.18-1.76-2.15-2.88-2.95-1.04-.75-1.85-1.27-1.17-2.75.61-1.33-.42-2.05-1.42-2.59-2.65-1.44-2.62-4.49-4.04-6.66-.05-.08.37-.46.51-.62-.28-.32-.74-.67-.96-1.13-.61-1.27-1.08-2.44-2.91-2.52-2-.08-3.41-1.92-3.76-3.97-.15-.85-.59-1.71-1.11-2.41-1.09-1.47-2.36-2.81-3.48-4.27-1.4-1.84-2.17-3.82-1.03-6.14.19-.39.07-.95.04-1.43-.09-1.49-1.03-2.96.12-4.49.28-.37.19-1.32-.1-1.76-1.12-1.69-1.87-3.23.3-4.7.15-.1-.15-.93-.31-1.39-.27-.78-.69-1.52-.9-2.31-.61-2.3-1.09-4.5-3.95-5.28-1.4-.39-2.56-1.64-3.68-2.73,2.53.43,4.52,1.64,6.66,3.11,2.43,1.66,2.48,4.27,3.69,6.38.27-.07.54-.14.81-.22-.08-1.47-.58-4.85-1.13-6.03-.2-.44-.99-.61-1.53-.88-.43-.21-1.06-.26-1.3-.59-1.21-1.73-3.02-2.3-4.92-2.75-1.52-.36-1.91-1.25-1.36-2.79.1-.28-.23-.8-.48-1.11-.45-.57-1.03-1.04-1.48-1.61-.85-1.08-1.64-2.2-2.45-3.31-.39-.53-.84-1.03-1.14-1.6-.98-1.87-1.72-2.06-3.56-.93-.53.33-1.18.46-2,.77.3-1.18.47-1.82.64-2.48.67-.2,1.57-.47,2.46-.74-.34-1-.68-1.99-1.11-3.27-1.37.95-2.43,1.69-3.55,2.48-.69-.97-.81-1.48.39-2.02.69-.31,1.41-1.28,1.48-2.01.06-.63-.8-1.33-1.22-1.94-.85.96-1.43,1.61-2.01,2.26-.13-.08-.27-.16-.4-.24v1.73c-.11.05-.22.09-.34.14-.59-.93-1.18-1.86-1.55-2.45.98-.47,2.19-.66,2.54-1.31.66-1.22-.15-2.16-1.57-2.77-.22.61-.42,1.15-.56,1.52-.74.1-1.45.2-1.9.27-1.71-1.08-3.38-2.13-5.16-3.25.07-.31.16-.76.35-1.64-.96.49-1.65.84-2.34,1.18.07-.13.14-.26.21-.38-2.01-.92-4-1.88-6.04-2.71-.39-.16-1.03.14-1.51.35-1,.43-1.96.94-2.94,1.42.06-.24.11-.49.17-.73-.67-.69-1.23-1.57-2.04-2.02-.6-.33-1.5-.11-2.27-.14.06,1.11.12,2.21.16,3.07-2.02,1.02-4.11,2.08-6.34,3.21.29-1.37.47-2.75.92-4.03.13-.37,1.02-.5,1.57-.71.44-.17.9-.3,1.36-.44-.19-.39-.29-.9-.59-1.15-1.29-1.02-2.42-1.05-3.61.37-1.59,1.91-3.38,3.64-5.19,5.55.67.53,1.3,1.02,2.11,1.65-2.93,2.19-5.7,4.24-8.45,6.33-.35.27-.56.72-.87,1.04-.39.41-.76.97-1.26,1.15-2.22.8-4.49,1.5-6.96,2.06.86-.54,1.73-1.07,2.58-1.61,1.15-.73,2.3-1.46,3.45-2.19.54-.34,1.17-.59,1.6-1.04.75-.78,1.52-1.61,2.01-2.56.54-1.03.78-2.21,1.22-3.53-.48-.4-1.15-1.08-1.95-1.57-.47-.28-1.48-.52-1.65-.3-.95,1.21-2.16.86-3.35.85-.32,0-.63.29-.95.44-.42.18-.84.35-1.26.53.08-.43.02-.98.26-1.27,1.03-1.25-.59-1.79-.66-2.72-.5.09-1.03.32-1.51.24-1.47-.23-2.91-.58-4.58-.92,1-1.54,1.19-2.5-.58-2.91,1.09-1.78,2.14-3.49,3.22-5.26.43.19,1.02.46,1.62.72-.05-.2-.09-.39-.14-.59.92-.44,1.81-.94,2.76-1.3,1.11-.42,1.82-.96,1.41-2.3-.13-.44-.07-.93-.09-1.4-.03-.51.1-1.39-.1-1.46-.61-.24-1.47-.43-2-.17-.78.39-1.35,1.19-1.71,1.53h-5.41c-.67-1.03-.94-3.34-3.45-3.39,1.96-1.03,3.92-2.06,5.99-3.15.02,2.4,2.62,1.06,3.86,2.1.15.12.99-.78,1.58-.95.86-.26,1.79-.29,2.88-.8-.7-.44-1.4-.88-2.11-1.3-.15-.09-.47-.1-.49-.19-.45-2.27-2.84-2.36-4.17-3.66-.71-.69-1.93-.89-2.95-1.21-.47-.15-1.01-.07-1.28-.08,1.4-.84,2.79-1.85,4.32-2.56,2.65-1.22,5.38-2.25,8.08-3.35.77-.31,1.6-.5,2.3-.92,2.22-1.34,4.26-3.22,7.19-2.12.05.02.13.02.18,0,2.9-1.35,4.06,1,5.6,2.59.33.34,1.01.7,1.36.58,1.76-.6,3.04.24,4.11,1.35,1.38,1.45,2.82,1.12,3.77-.09.93-1.18,1.46-.87,2.31-.19,1.02.81,1.92.77,2.51-.51.43-.94,1.1-1.67,2.12-1.13,1.19.63,2.01,1.46,3.27,1.93,1.81-.23,3.46-.52,4.73,1.17.32.42,1.06.57,1.64.75,1.21.37,2.43.72,3.66,1,.37.08.8-.1,1.57-.22-.9-.78-1.46-1.26-2.01-1.75v-.65c4.02,1.43,6.77-1.99,10.42-2.16-2.47.91-4.79,1.96-6.08,4.38.09.18.19.37.28.55.61-.33,1.33-.54,1.8-1.01,2.02-2,4.48-2.75,7.46-2.99.5-.88,1.12-1.97,1.85-3.25.62,1.23,1.21,2.47,1.86,3.69.85,1.6,1.55,1.63,2.65.15.42-.56.82-1.13,1.31-1.81.06.98.11,1.73.16,2.48.93-.29,1.85-.65,2.8-.86.95-.21,2.15-.69,2.88-.33,3.46,1.73,7.18,2.34,10.91,3.01.92.16,1.79.58,2.86.94-1.1.77-1.92,1.35-3.11,2.18.91.54,1.49,1.18,2.07,1.18,2.47-.01,4.99,0,7.4-.45,1.17-.22,1.83-.18,2.74.54.75.6,2.08.55,1.07,2.11-.36.56,1.25,1.38,2.05.94.41-.22.76-.55,1.2-.87-.63-.93-1.26-1.87-1.92-2.85,1.32-.63,2.43-1.29,3.63-1.7.7-.24,1.63-.35,2.28-.09,1.61.64,3.1,1.56,4.67,2.31.47.23,1.06.4,1.56.35,1.65-.18,3.29-.47,4.93-.76.34-.06.87-.29.91-.51.32-1.88,1.24-1.92,2.65-1.04.34.22.89.11,1.48.16-1.12,1.33-.48,3.39,1.04,3.91.29.1.78.03.99-.16.21-.19.32-.68.24-.96-.17-.56-.51-1.07-.79-1.64,1.04-.61,2.02-1.09,2.89-1.72.91-.67,1.55-1.49.37-2.54-.2-.18-.44-.52-.41-.75.23-1.62-.91-1.82-2.04-2.07-.58-.13-1.23-.15-1.73-.43-1.37-.77-1.37-1.31-.25-2.2-.33-.85-.65-1.66-.96-2.47.73-.12,1.45-.23,2.1-.34.21-.78.59-1.67.67-2.59.07-.8-.17-1.65-.35-2.45-.19-.82-.68-1.63-.67-2.44.03-2.5,1.6-3.72,4.27-3.38,1.51.2,2.99.58,4.77.93-.96,1.56-1.83,2.96-2.59,4.18-1.4-.27-2.55-.49-3.7-.7l-.15.53c.38.34.75.68,1.13,1.02-.67.89-1.31,1.72-1.98,2.61,2.83,1.2,2.93,1.33,2.73,3.58.93.64,1.88,1.3,2.75,1.9-.38.98-.72,1.85-1.11,2.84,1.31.17,2.28.3,3.7.49-.92.6-1.42.93-1.79,1.18.52,1.05.85,1.78,1.24,2.47.13.23.44.55.59.52.27-.07.55-.34.69-.6.42-.78.77-1.59,1.28-2.66.89.72,1.59,1.18,2.15,1.78.24.25.39,1.03.26,1.12-1.93,1.33-.66,2.5.14,3.69.29.43.6.84.96,1.35.9-.72,1.62-1.3,2.49-1.99-.57-.44-.97-.74-1.78-1.36.93.21,1.36.31,1.69.38.98-1.43,1.93-2.83,3.01-4.39-.5-.43-1.12-.95-1.79-1.53,4.06-1.24,5.69-.53,7.65,3.29-.81.04-1.59.08-2.68.14.55.93.9,1.76,1.46,2.42,1.08,1.27.64,2.15-.51,3.01-.76.57-1.47,1.23-2.2,1.84q-1.67-2.25-2.83-1.54c.34.28.79.47.92.79.15.37.02.85.02,1.28-.38-.06-.79-.05-1.12-.22-.24-.12-.35-.64-.56-.68-.81-.14-1.63-.14-2.45-.2.11.64.23,1.28.42,2.37-1.18,1.94-2.02,2.11-4.26.44-.2-.15-.39-.38-.6-.41-.55-.06-1.11-.03-1.66-.04.31.52.5,1.29.96,1.5,1.2.55,2.52.86,3.8,1.26-1.37,2.74-1.82,2.99-4.56,2.55-.62,1.94-.97,2.09-3.03,1.32-1.37-.52-2.73-1.39-4.23-.17,1.83.73,3.56,1.41,5.35,2.12-1.46,1.03-2.9,1.92-4.2,2.97-2.61,2.12-3.52,5.08-3.71,8.29-.08,1.34.32,2.79,1.78,3.09,2.18.44,2.27,2.09,2.6,3.66.12.58.02,1.21.02,1.92,1.12-.26,2.22-.78,3.27-.7,1.09.07,2.37.46,3.18,1.16,3.12,2.68,6.79,3.83,10.74,4.25,1.42.15,2.17.57,1.99,2.09-.04.3.11.63.05.91-.86,3.79,2,5.65,4.09,7.89.71.76,3.05.29,3.15-.72.1-1.07,1.18-2,.21-3.37-.7-.99-.54-2.56-.85-3.85-.11-.45-.48-.85-.78-1.36,1.34-.97,2.67-1.94,4.01-2.89,2.38-1.7,2.7-2.94,1.59-5.6-.41-.99-.5-2.11-.94-3.08-.41-.9-1.09-1.67-1.66-2.49q1.69-1.27-.21-4.7c.28-.16.56-.32.84-.49.92-.56.99-1.08.1-1.82-.42-.35-.58-1.02-.86-1.55.55-.22,1.13-.68,1.66-.63,2.91.29,5.78.5,7.88,3.17.74.93,2.46,1.14,3.77,1.54.59.18,1.29.03,2.01.03-1.31,3.03-.68,4.74,2.21,6.46.21.12.52.22.59.41.92,2.26,1.7,1.11,3.28.4,2.57-1.16,2.19-3.65,3.4-5.36.67,1.83,1.03,3.78,2.04,5.31,1.05,1.6,2.72,2.8,4.12,4.17-.09.17-.18.34-.27.5-.74.1-1.47.21-2.26.32,2.28,3.39,4.5,6.71,9.62,5.8-1.24,1.98-4.49,1.02-4.41,4.22.94-.38,1.7-.64,2.42-1,.75-.37,1.45-.84,2.35-1.37.14.78.23,1.29.29,1.6,1,.44,1.88.83,2.4,1.05,0,1.07.25,1.91-.06,2.38-.48.73-1.27,1.59-2.04,1.73-1.62.29-2.76,1.03-3.88,2.17-.59.6-1.72.9-2.62.93-2.51.09-5.02-.06-7.53-.04-1.86.01-3.4.02-5.21,1.56-2.13,1.81-3.72,3.96-5.6,5.91-.34.36-.49.91-.8,1.53.77.2,1.31.34,1.61.42.59-.58,1.09-1.07,1.6-1.56,1,.61,2.64.26,2.93,1.94.22,1.29.42,2.59.64,3.89.04,1.33-.69,1.73-1.86,1.49-2.16-.45-3.47,1.22-5.09,2.06-.25.13-.23.89-.22,1.36.04,1.22.14,2.43.21,3.64-1.26.15-2.4.23-3.52.43-.45.08-.99.33-1.25.68-1.56,2.1-3.05,4.24-4.56,6.36-.15-.92-.31-1.87-.47-2.81-.19-.03-.38-.05-.57-.08-.41.96-.76,1.94-1.23,2.86-.62,1.21-.22,1.99.74,2.84.47.42.54,1.3.79,1.97.25.68.49,1.35.65,1.81-2.78,2.21-5.58,4.33-8.26,6.58-3.5,2.95-4.01,5.51-1.94,9.55,1.24,2.42,1.86,4.88.65,7.82-1.23-2.65-2.48-5.29-3.68-7.95-.17-.38-.1-.85-.23-1.25-.56-1.75-1.64-2.03-3.15-.63-1.2-1.5-2.53-2.99-4.68-1.26-.38-.52-.7-.95-1.09-1.49-1.04,1.39-4.37-.06-3.79,3.24-1.43.53-2.41.49-3.35-1.03-1.28-2.07-3.6-2.31-5.53-.72-1.85,1.52-3.62,3.16-5.21,4.95-.54.61-.53,1.82-.58,2.76-.18,3.65-.52,7.32-.29,10.94.09,1.48,1.34,2.96,2.26,4.31.91,1.33,2.07,2.49,2.86,3.42,1.46-.16,2.46-.41,3.44-.36,2.15.11,3.8-1.04,5.5-2.04.27-.16.36-.76.37-1.17.06-2.7.84-3.5,3.55-3.55.89-.02,1.78,0,2.67,0,0,.35.03.56,0,.57-1.94.67-2.96,1.67-2.06,3.97.2.51-.95,1.56-1.64,2.6.06,1.42.92,3.34-.87,4.94.04.17.08.34.12.51,1.62-.16,3.3-.07,4.83-.53,2.39-.72,4.09.32,5.43,1.27-.23,1.04-.53,1.75-.52,2.46.03,2.04.19,4.08.29,6.01-2.87,1.2-5.61-1.13-6.2-4.07-.12-.59-.69-1.09-1.05-1.64-1.18-.29-2.36-.57-3.54-.86Zm13.52-63.85c.77-1.69,1.53-3.39,2.28-5.05.77.37,1.29.77,1.82.8.29.01.89-.63.87-.94-.08-1.09-2.28-3.02-3.41-3.21-1.2-.2-2.41-.4-3.6-.67-.45-.1-1.12-.28-1.25-.6-.76-1.9-1.71-3.58-3.65-4.51-.08-.04-.07-.24-.15-.33-1.84-2.12-3.64-2.1-5.51.03-.3.35-.66.67-1.05.91-1.62.97-3.26,1.9-4.93,2.87,1.38,1.8,3.9,2.02,5.34.59,1-.99,2.19-.86,2.6.02.74,1.58,1.81.96,2.87.94,1.35-.02,2.71,0,4.06,0-1.91,1.06-3.75,1.69-5.54,2.44-1.33.56-1.59,1.41-.31,2.21-.37.83-.63,1.51-.98,2.15-.83,1.55-.7,3.05.2,4.5.53.86.95,1.22,1.91.19,1.27-1.37,1.18-2.96,1.01-4.45-.28-2.42,1.34-3.34,2.93-4.29.4-.24,1.33-.09,1.71.24.59.5,1.3,1.18.44,2.16-.53.61-.85,1.4-1.27,2.11.11.1.21.2.32.29.85-.28,1.69-.55,2.83-.92-.1,1.12-.2,1.89-.22,2.66,0,.11.41.23.64.34.31,1.05.3.98-.59,1.06-.68.07-1.35.35-2.02.54,0,.28-.01.56-.02.84.96.44,1.93,1.2,2.89,1.21.78,0,1.5-1.05,2.35-1.39,2.42-.96,3.84-3.55,6.75-3.85.95-.1,2.57-.94,2.55-2.81-1.66.15-3.13.19-4.56.44-1.97.35-2.53,1.45-1.59,3.51h-5.74Zm-79.59-66.43c.04.26.09.51.13.77,1.08-.2,2.29-.17,3.22-.66,1.05-.56,1.8-.51,2.38-.23-.89.87-1.72,1.59-2.43,2.4-.29.33-.35.87-.52,1.32.48.13,1.06.48,1.44.34,1.09-.42,2.1-1.04,3.51-1.78-.6,1.02-1.01,1.72-1.42,2.42l.5.43c1.2-1.06,2.4-2.13,3.61-3.19.17-.15.41-.34.61-.32,1.99.15,2.49-1.31,3.33-3.33-1.05.26-1.9.23-2.36.63-.88.77-1.62,1.11-2.63.35.44-.76.83-1.42,1.22-2.09-.14-.21-.27-.43-.41-.64-3.39,1.19-6.78,2.38-10.17,3.57Zm14.73,16.31c.66.85,4.8,1.47,5.88.72,2.31-1.61,4.63-3.2,6.9-4.87.39-.28.55-.87.82-1.31-.61-.02-1.32-.25-1.8-.02-1.01.48-1.87,1.28-2.86,1.82-1.07.59-2.06,1.14-3.07-.43-.71-1.11-1.97-2.24-3.5-.79.53.84,1,1.6,1.47,2.35-1.42.93-2.57,1.69-3.84,2.53Zm37.85,31.14c.2.01.4.02.6.03.23-.8.83-1.73.61-2.38-.81-2.42-1.85-4.77-2.91-7.1-.19-.42-.95-.96-1.3-.86-.54.15-1.37.81-1.34,1.2.08,1.17.16,2.67.89,3.38,1.32,1.28,2.36,2.51,2.62,4.37.07.48.54.9.82,1.35Z"/><path class="cls-1" d="m446.67,257.31c-1.46,3.43-.89,6.45.98,9.28.22.33.1.88.13,1.22,1.38.7,2.86,1.49,4.38,2.2,2.83,1.33,3.52,3.7,3.55,6.59.01,1.2.63,2.39.97,3.58l.95-.09c.06-.56.26-1.15.16-1.68-.26-1.31-1.01-2.37-.66-3.98.22-1.01.42-3.34-1.5-3.8-4.78-1.14-6.62-4.71-7.85-8.89-.12-.4-.16-.82-.26-1.23-.27-1.07-.56-2.14-.85-3.22Zm4.29-4.21c.16,1.24.01,2.74.44,2.93,1.02.45,2.41.6,3.11-.89.64-1.36,1.34-2.69,1.99-4-1.49-1.37-3.57-1.08-4.66.45-.33.46-.92.72-1.39,1.08-.06.05-.13.09-.17.12.38.17.74.34.68.31Zm-42.08-79.9s0,.03.01,0h-.01Z"/><path class="cls-1" d="m486.4,227.42c-1.32,3.34-.75,6.56-3,9.24-1.72,2.05-2.92,4.58-4.16,6.99-.89,1.74-2.05,3.17-3.88,3.65-1.47.38-2.23,1.27-3.08,2.34-.97,1.24-2.32,2.19-3.22,3.47-1.32,1.9-2.34,4.01-3.61,5.94-.29.44-1.11.53-1.58.74.01.26.14.93.05,1.56-.11.72-.49,1.39-.63,2.1-.32,1.68-.35,3.26,2.25,3.62-2.03,1.1-1.81,2.47-1.16,4.02.5,1.19.86,2.46,1.12,3.72.11.54-.21,1.16-.35,1.74-.19.8-.78,1.77-.52,2.37.91,2.11.35,3.92-.62,5.76-.34.64-.61,1.32-.91,1.96-3.45-.52-4.65,2.31-5.92,4.33-1.96,3.14-2.18,6.62.67,9.85-1.43,1.06-2.87,2.07-4.23,3.17-.41.33-.95,1.07-.83,1.38.75,1.83-.38,2.87-1.46,3.97-.35.34-.72.68-1.12.95-1.76,1.2-2.89,2.63-2.84,4.97.04,1.65-.89,3.13-2.44,3.85-2.69,1.25-5.43,2.44-8.23,3.43-2.45.86-5.01,1.39-7.83,2.16-1.4-1.22-2.59-2.95-2.26-5.41.05-.36.15-.9-.04-1.07-1.53-1.42-1.45-3.29-1.72-5.14-.12-.84-.93-1.53.15-2.33.25-.19.1-.9.16-1.59-.95.34-1.7.61-2.75.98-.83-3.79-1.39-7.51-2.51-11.05-.87-2.72-.3-5.67-2.07-8.31-1.13-1.68-1.17-4.16-1.46-6.31-.09-.64.98-1.44.89-2.08-.4-2.83-.05-5.32,1.92-7.57.36-.4,0-1.94-.52-2.48-.98-1-1.07-2.01-.75-3.17.39-1.39.38-2.59-.81-3.68-.36-.32-.34-1.08-.55-1.84h6.78c.01-.1.01-.21.01-.31-1.7,0-3.41-.05-5.1.02-.98.04-1.37-.4-1.94-1.17-1.38-1.85-1.02-3.83-.74-5.92-.49.28-.98.68-1.09.59-.69-.53-1.35-1.12-1.89-1.79-.23-.28,0-1.03-.23-1.18-1.93-1.29-1.22-2.56-.08-3.86l2.82-1.53c.18-.56.36-1.12.6-1.85-.87-.15-1.56-.27-2.26-.38-.08-.09-.22-.17-.23-.27-.79-4.4-1.01-4.41-5.38-4.5-1.47-.03-2.95-1.15-4.36-1.88-1.21-.62-2.48-1.25-3.47-2.15-1.14-1.04-2.58.34-3.67-.67-.09-.08-.93.67-1.66,1.21-.06-1.32.38.44-2.36.61-1.57.1-3.15.17-4.7.38-2.16.29-4.31.67-6.46,1.05-.4.07-.78.31-1.29.51-.25-.42-.49-.81-.73-1.2v1.89c-2.34-1.37-4.39-2.53-6.38-3.78-.29-.18-.29-.81-.42-1.23-.58-.2-1.52-.24-1.68-.62-1.35-3.17-4.88-4.71-5.95-8.1-.18-.56-1.05-.92-1.74-1.49.47-.16.82-.28,1.5-.51-2.03.08-2.41-1.02-2.44-2.56.71-.09,1.36-.17,2.07-.26-.7-.15-1.53-.09-1.92-.48-.83-.81-1.81-1.51-.68-3.12,2.06-2.93,1.62-6.32.74-9.57-.18-.67-.97-1.18-1.78-2.09,1.21-1.99,2.57-4.2,3.89-6.44,1.2-2.02,2.42-4.04,3.52-6.12.55-1.06,6.53-5.67,8.06-8.12,1.59-2.54,3.05-5.16,4.68-7.68.77-1.19,1.78-2.23,2.63-3.27,2.08.43,4.28.88,6.48,1.33,1-.6,2.52-1.13,3.48-2.17,1.91-2.08,4.5-1.67,6.72-1.93,2.38-.26,4.8-.24,7.2-.69.52-.1,1.18.54,1.79.86,0,.02,0,.03.01,0h-.01c.02-.08.09-.36.16-.63h3.57c.33.98.77,1.83.85,2.71.05.53-.43,1.13-.74,1.66-.34.59-1.09,1.17-1.04,1.69.05.49.88.94,1.41,1.34.23.18.75.13.83.32.87,1.9,2.7,1.04,4.04,1.54,1.48.56,2.72,1.73,4.11,2.57.67.4,1.43.65,2.15.96.92.41,1.81.9,2.76,1.2.86.27,1.97.73,2.64.41,1.04-.49.83-1.58.15-2.51-.17-.24-.09-.81.08-1.1.15-.23.79-.48.9-.38,2.06,1.89,3.09.55,3.67-1.01,1.22.45,2.18.99,3.19,1.14,1.35.18,3.35,3.41,4.35,3.68,1.07.28,2.39-.17,3.57-.45,1.99-.49,3.95-1.1,5.92-1.65.17-.05.45-.07.53.02,1.07,1.21,2.43.86,3.76.81.2-.01.42.21.63.33.08.08.16.15.25.21-.21,1.78-.43,3.55-.64,5.32-.18.04-.36.07-.53.11-.47-1.01-.89-2.04-1.41-3.03-.2-.36-.61-.62-.92-.92-.21.43-.62.89-.57,1.28.13.95.39,1.92.77,2.8,1.37,3.13,2.92,6.19,4.2,9.35.66,1.64,1.43,3.03,2.82,4.21.67.57.98,1.83,1.04,2.8.14,2.01-.16,4.07,1.74,5.52.18.14.06.68.08,1.04.45.27,1.05.45,1.32.84.8,1.16,1.35,2.49,2.2,3.6,1.07,1.39,2.35,2.61,3.51,3.93.51.58.96,1.22,1.12,2.14-.38-.14-.76-.27-1.14-.41.22.25.46.72.67.71,2.02-.1,1.87.72.87,1.92,1.74,2.25,3.68,3.19,6.6,2.05,2.35-.92,4.94-1.2,8.04-1.91Z"/><path class="cls-1" d="m308.79,256.54c-.04.32-.09.85-.19,1.69,1.54-.4,3.2-1.41,4.17-.95,1.82.86,3.28-.36,4.85-.07.58.1,1.1.64,1.59,1.04,1.85,1.48,3.76,2.9,5.49,4.5,2.36,2.19,2.43,3.62.68,6.35-.22.35-.54.75-.52,1.11.1,1.86-1.4,2.57-2.43,3.66-1.3,1.37-2.61,2.78-3.6,4.36-.43.68-.06,1.86-.04,2.82.01.52.1,1.04.12,1.56.12,3.15-.35,6.11-2.26,8.78-.52.73-.49,1.87-.67,2.83-.44,2.25-1.35,3.13-3.58,3.55-2.99.57-5.4,2.33-7.87,3.95-.4.26-.79.58-1.23.74-2.41.86-3.22,2.85-2.37,5.37.2.59-.03,1.61-.45,2.07-1.64,1.78-3.46,3.39-5.16,5.12-.3.31-.44.86-.49,1.31-.31,3.17-2.25,5.32-4.53,7.21-.55.46-1.47.45-2.21.7-.5.17-.99.41-1.48.61-.04.19-.08.37-.12.56-1.4-1.1-2.79-2.2-4.25-3.35v3.24c.61.16,1.4.37,2.18.58-.14.12-.28.24-.42.37.43.81.88,1.61,1.28,2.43.16.34.44.9.31,1.06-2.16,2.56-4.79,4.43-8.14,5.08-.39.08-.85-.36-1.3-.46-.44-.1-.91-.08-1.37-.11,0,.42,0,.84,0,1.26,0,1.19.17,2.43-.09,3.56-.1.44-1.16.73-1.84.94-.27.09-.66-.28-1.02-.35-.7-.15-1.41-.24-2.12-.35-.14.95-.63,2.07-.3,2.81.27.61,1.52.8,2.35,1.14.13.05.32-.05.49-.08.03.17.07.35.1.52-.67.08-1.34.15-2.42.27-.18.87-.36,2.08-.72,3.25-.17.53-.63,1.02-1.05,1.43-1.15,1.12-3.21,1.27-3.37,3.46-.12,1.72.84,2.38,2.24,2.79,1.17.34,1.59.58.43,1.76-1.38,1.41-2.33,3.23-3.48,4.86-.31.44-.67.86-1.04,1.26-.44.47-1.27.89-1.29,1.36-.06,1.4.2,2.8.33,4.16-1.82-.78-2.24,1.41-3.75,2.02-.99-.79-2.13-1.71-3.28-2.63.08-.16.16-.31.24-.47-.49.13-.97.27-1.73.48.27-.66.45-1.11.71-1.74h-2.86c.58-1.37,1.14-2.52,1.52-3.73.18-.57,0-1.25-.03-1.87-.38.5-.77,1.01-1.15,1.51-.07.09-.11.21-.16.32-.98-.82-.83-1.47.42-2.26.41-.26.67-.74,1-1.12-.12-.12-.24-.24-.37-.37-.57.15-1.14.31-1.71.46-.04-.24-.07-.47-.11-.71.98-.94,2.11-.27,3.19.33,1.16-2.07-1.11-1.28-1.49-2.02,1.17-1.67,1.1-1.86-.77-2.49-.35-.12-.9-.62-.87-.67.36-.65.82-1.25,1.32-1.97.6.76,1.02,1.29,1.44,1.82.19-.02.37-.05.56-.07.3-1.94.57-3.88.91-5.81.25-1.46.72-2.89.84-4.36.06-.74-.37-1.55-.68-2.29-.06-.15-.74-.25-.77-.18-.27.5-.55,1.04-.64,1.59-.16.94-.19,1.91-.27,2.86-.22-.01-.45-.03-.67-.04.07-.74.12-1.48.22-2.21.14-1.07.26-2.16.5-3.21.15-.65.39-1.33.77-1.87.64-.91,1.07-1.57.09-2.66-.47-.52-.55-1.94-.17-2.59,1.12-1.93,1.99-3.83,1.95-6.14-.01-.86.59-1.72.71-2.6.29-2.1.4-4.22.7-6.31.14-1.02.58-2,.81-3.01.16-.69.44-1.5.24-2.11-.66-2.02.1-3.83.5-5.73.42-1.99.74-4,.94-6.02.18-1.79.13-3.6.2-5.4.03-.73.27-1.49.14-2.19-.27-1.44.86-3.16-.93-4.32-1.3-.84-2.54-1.79-3.7-2.81-2.2-1.93-5.51-2.82-5.94-6.45-.1-.86-.79-1.64-1.1-2.49-.42-1.17-.92-2.36-1.03-3.58-.1-1.13-.43-1.74-1.49-2.21-.71-.31-1.54-.99-1.76-1.67-.84-2.65-2.62-4.46-4.4-5.65v-5.03c1,1,1.63,1.62,2.26,2.25.13-.17.26-.34.39-.51h-1.69c.54-1.19.96-2.11,1.47-3.22-1.95-.38-2.77-1.82-2.42-3.54.21-1.04,1.77-1.86,1.85-2.86.15-1.9,1.4-1.61,2.67-1.75-.98-2.56,1.51-3.02,2.49-4.41.29-.41.55-.83.82-1.24-1.73-.92-.64-2.54-.73-3.74-.11-1.61-.37-2.82-1.76-3.72-.36-.23-.52-.77-1.11-1.7,1.27.12,2.06.19,2.86.27.01.2.03.41.04.61,2.89-2.71,5.28-6.19,9.92-6.61-.31.71-.53,1.19-.71,1.68-.53,1.43.12,2.55,1.64,2.61,1.29.05,1.25-1.11.86-1.68-1.08-1.58-.24-2.08,1.07-2.63.55-.23.97-.8,1.43-1.2,1.13,2.11,2.72,4.12,5.58,3.85,1.74-.17,3.74.53,5.27-1.14.44-.48,1.47-.4,1.92-.51.36,1.08.44,2.14,1,2.82.7.85,1.72,1.53,2.74,1.99,1.14.52,2.96.35,3.53,1.16,1.07,1.51,2.65,2.47,3.65,3.98.03.05.04.11.02.04.72,0,1.38.02,2.04,0,.67-.02,1.34-.1,2.02-.11.38,0,.85-.04,1.14.15,1.11.71,2.18,1.49,3.23,2.28.85.63,1.54,1.28,1.01,2.56-.53,1.28,1.05,1.6,1.46,2.53.42.95,1.43,1.64,2.37,2.65-.56.49-1.2,1.01-1.78,1.58-.41.4-.74.87-1.1,1.31.46.32.93.64,1.43.98.99-2.28,1.73-2.34,4.04-.4-.7.75-1.39,1.49-2.08,2.23l.31.61c.66-.25,1.62-.3,1.93-.78.7-1.06,1.42-.92,2.34-.55,1.67.68,3.36,1.32,5.29,2.08Z"/><path class="cls-1" d="m268.81,53.75q-1.65-1.31-2.47.92c-1.52-.6-3.04-1.19-4.63-1.82.23-.76,2.13-1.32.3-2.09-.84-.35-1.76-.49-2.68-1.05,2.13-.13,4.27-.27,6.4-.38.73-.03,1.47.09,2.19,0,.09-.01.28-1.12.08-1.29-.66-.55-1.66-1.41-2.23-1.23-1.73.56-3.28,1.08-5.09.21-1.52-.74-3.17-1.19-5.2-1.93.81-.52,1.41-1.01,2.09-1.3.78-.33,1.79-.28,2.42-.76,2.33-1.78,4.94-1.95,7.68-1.65,1.05.11,1.78-.06,1.91-1.34.05-.5.43-.99.71-1.45.96-1.6.56-2.33-1.36-2.41-.86-.04-1.71-.05-2.57-.08-.05,0-.09-.06-.33-.21,2.48-2.05,5.03-3.8,8.12-4.59.62-.16,1.39.25,2.09.4.54.12,1.08.25,1.62.38.1-.64.31-1.28.26-1.9-.04-.52-.39-1.01-.61-1.54,2.01-1.76,3.79-.48,5.97.99-.32-1.21-.49-1.82-.69-2.57,2.22-.48,4.45-1.04,6.72-1.42,1.66-.28,2.33.73,1.91,2.55-.14.6-.14,1.25-.07,1.87.01.1.99.28,1.1.13.39-.56.72-1.22.83-1.88.14-.81.03-1.67.03-2.93,2.15,1.25,3.61,3.43,6.61,2.43-.92-1.05-1.71-1.95-2.54-2.89,1.58-.93,2.8.04,4.08.68,2.69,1.33,5.39,2.64,8.34,4.09.29-1.96-1.05-2.38-2.06-2.96-1.02-.59-2.11-1.06-3.17-1.59l.09-.48c.5-.06,1-.09,1.49-.19.5-.1.98-.27,1.46-.42-.37-.4-.72-.82-1.11-1.21-.16-.16-.4-.25-.89-.54,2.11-.31,3.92-.62,5.73-.83,2.16-.25,4.33-.47,6.51-.58.44-.02.91.47,1.37.73.54.32,1.07.64,1.61.96.16-.59.34-1.18.48-1.78.04-.16,0-.33,0-.73,5.74-.45,11.41-1.59,17.13-.06.88.23,1.8.37,2.71.39,2.03.05,3.72.76,5.18,2.16.33.31.97.34,1.48.4,1.43.16,2.87.27,4.3.41.03.23.05.46.08.69-2.24.46-4.46,1.07-6.73,1.35-2.18.27-4.42.07-6.6.35-2.13.28-4.24.82-6.29,1.44-.7.21-1.23,1.02-1.84,1.55.11.13.21.26.32.38,4.35-.68,8.69-1.36,13.04-2.04.07.22.14.44.22.66-.7.4-1.48.71-2.07,1.23-.42.37-.6,1.01-.89,1.53.65.11,1.43.5,1.93.27,1.27-.58,2.41-1.44,3.6-2.19.73-.45,1.42-1.02,2.21-1.29.52-.18,1.58-.08,1.71.21.23.5.15,1.39-.18,1.86-1.03,1.47-2.23,2.83-3.13,4.5,3.17-.3,4.65-3.05,6.45-4.36,2.07.28,3.73.52,5.39.7.24.03.65-.22.75-.45,1.45-3.13,4.18-1.96,6.49-1.84,1.06.05,2.09.76,3.6,1.35-4.1,3.02-8.34,3.87-12.72,4.31-.02.18-.04.36-.07.54,1.43.28,2.86.56,4.48.88-2.62,1.17-6.01-.47-7.95,2.18.08.29.16.57.24.86.89-.24,1.81-.42,2.67-.74.86-.31,1.66-1.24,2.66.1-.69.16-1.38.17-1.88.48-.63.39-1.56,1.02-1.57,1.55-.03,2.05-1.18,2.32-2.85,2.02-.64,1.94-1.24,3.76-1.87,5.69,1.79.21,3.28-2.25,5.27-.43-1.14.46-1.94.79-2.84,1.16,1.44,1.94,2.97,1.78,4.67.84.1.8.16,1.24.24,1.84-.45,0-.79.1-1.01-.02-2.14-1.18-4.15.26-6.23.32-.16,0-.47,1.28-.4,1.31,1.36.65,2.21,2.33,4.18,1.82,1.28-.33,1.92.8,1.86,1.92-.05.99-.62,1.75-1.92,1.48-.69-.14-1.43-.03-2.14-.03-.23,1.98.66,2.78,3.9,3.62-.01.17-.02.35-.04.52-1.6-.15-3.19-.31-5.2-.5.41.69.66,1.32,1.09,1.77.42.44,1.02.71,1.61,1.1-1.75,1.44-3.67,1.58-5.23.38-.95-.73-1.61-1.13-2.13.37-.1.29-.73.37-.98.66-.37.43-.63.96-.93,1.45.56.24,1.12.68,1.67.68,1.32-.01,2.63-.25,3.95-.36.22-.02.45.12.72.2.07,1.6-.76,1.79-1.97,1.39-.4-.13-.74-.52-1.13-.56-.43-.05-.88.18-1.32.28.14.42.15.99.44,1.23.8.65,1.71,1.16,2.57,1.74,2.18,1.44,2.39,2.27,1.07,5.22-1.99-1.32-3.91-2.59-5.68-3.77-.91,1.75-1.69,3.25-2.39,4.6,2.64.14,4.94.26,7.24.39.03.09.06.19.1.28-.32.14-.65.26-.96.42-1.26.69-2.51,1.4-3.77,2.11-2.06,1.16-4.11,2.31-6.62,2.01-.41-.05-1.06-.15-1.23.06-1.52,1.97-3.44,1.49-5.03.98-.91,1-1.64,1.81-2.38,2.61-.16.18-.48.32-.5.5-.38,3.65-3.37,4.25-6.05,5.21-.34.12-.7.18-1.03.27-.47-.66-.93-1.31-1.76-2.48-.04,2.65-1.16,3.42-3.19,3.08-.09.53-.19,1.03-.26,1.42-.89-.18-1.71-.34-2.53-.5-.16.25-.33.51-.49.76.63.43,1.25.85,1.69,1.15-.39,1.77-.62,3.51-1.21,5.12-.23.63-1.19,1.14-1.92,1.4-.93.33-1.36.67-.97,1.7.99,2.62.24,5.39-1.72,7.02-2.14-.81-4.16-1.64-6.23-2.34-2.19-.74-6.12-4.37-5.68-7.24-1.44-1.64-2.72-3.09-4.07-4.62,1.34-1.83.48-2.97-1.11-4.05-1.71-1.16-1.64-1.67.06-2.74.98-.62.58-1.2-.13-1.67-.54-.36-1.15-.61-1.72-.91,2.05-4.62,2.07-4.63,5.4-4.08.3-1.07.75-2.16.89-3.28.24-1.88-1.27-2.46-2.63-3.03-1.13-.47-2.29-.87-3.44-1.31l.21-.62c1.67.45,3.34.9,5.01,1.35.13-.07.26-.14.39-.21-.48-.58-.87-1.3-1.47-1.7-1.27-.84-3.08-1.09-2.92-3.26.01-.16-.99-.65-1.43-.55-.73.16-1.39.67-2.09,1.03-1.31-1.68-1.18-2.52.54-3.98-.84-1.88-1.63-3.73-2.5-5.55-.36-.75-.83-1.47-1.36-2.11-1.02-1.23-2.01-2.52-3.2-3.57-1.15-1.01-2.46-1.94-3.86-2.55-1.49-.65-3.14-.98-4.75-1.27-.61-.11-1.31.27-1.97.41-.27.06-.55.06-.82.11-.76.15-1.52.32-2.81.59Z"/><path class="cls-1" d="m608.14,325.83c-.69-.77-1.29-1.43-1.67-1.86.44-1.48.92-2.86,1.26-4.28.39-1.64-.78-2.66-1.62-3.84-.41-.57-.62-1.45-.54-2.15.15-1.41.09-2.61-1.02-3.69-.53-.52-.79-1.38-.98-2.13-.08-.3.24-.92.54-1.06,1.39-.67,1.53-1.21.42-2.22-2.28-2.09-2.27-2.66.08-4.77,3.27-2.94,7-5.11,11.13-6.59,1.7-.61,4.09-3.97,4.18-5.78.02-.43.28-.9.55-1.25.08-.1.63.08.9.24.44.27.84.63,1.25.95.06-.64.12-1.27.18-1.88,1.16.4,1.78.18,1.39-1.47-.11-.46.45-1.28.93-1.62,1.1-.79,2.32-1.88,3.53-1.92.9-.03,1.86,1.37,3.03,2.33.48-.04,1.38-.12,2.29-.2-.36-3.25,1.52-5.58,5.25-6.37.03-.48.05-.98.07-1.41,2.48,1.08,4.62,2.96,7.8,2.43-.29.33-.52.79-.89.96-1.58.75-1.59.72-.92,2.36-.37.29-.73.58-1.48,1.17,1.36.89,2.55,1.59,3.65,2.41,1.57,1.17,3.11,2.37,4.57,3.66.85.75,2.19.8,2.56-.29.81-2.4,1.37-4.89,1.99-7.35.22-.88.32-1.8.49-2.79,1.46.43,2.34,1.15,2.43,2.79.03.54.78,1.37,1.32,1.5,1.41.32,2.2.83,2.01,2.44-.06.53.33,1.12.52,1.68.23.67.63,1.32.68,2,.16,1.97.75,3.47,2.84,4.22,2.09.75,2.94,2.66,3.52,4.65.3,1.04.47,2.06,1.95,1.92.27-.03.89.53.85.72-.35,1.85,1.23,2.61,2.15,3.58,1.69,1.79,2.44,3.84,2.3,6.17-.2,3.48-.48,6.96-1,10.4-.15.97-1.46,1.7-1.89,2.69-1.17,2.72-2.23,5.5-3.17,8.31-.33.97-.4,1.7-1.7,1.93-1.07.18-2.17.88-2.99,1.63-1.22,1.12-2.21,1.19-3.24-.09-1-1.25-1.85-1.19-2.72.14-.69,1.04-1.11,1.06-1.94-.12-.82-1.16-2.14-2.13-3.45-2.75-1.54-.73-3.15-1.13-3.45-3.16-.04-.29-.49-.51-.72-.79-.63-.78-1.24-1.57-2-2.54-.24.22-.84.75-1.43,1.27-.15-.09-.29-.18-.44-.28.46-.74,1.04-1.44,1.35-2.25.25-.64.17-1.4.24-2.1-.59.31-1.3.5-1.75.95-.89.9-1.64,1.95-2.68,3.24-.65-1.27-1.02-2.01-1.4-2.75-2.29-4.44-6.85-6.11-11.38-4.05-1.88.86-3.64,1.16-5.63.36-2.22-.89-4.13.28-6.07,1.23-3.5,1.72-7.05,3.34-10.59,4.99-.49.23-1.03.33-1.43.46Z"/><path class="cls-1" d="m237.52,43.9c-.35-.59-.58-1.3-1.06-1.74-1.23-1.12-2.57-2.14-3.89-3.16-.36-.28-.79-.54-1.23-.65-1.09-.27-1.89-.85-1.62-2.02.29-1.25,1.41-1.4,2.36-.96,1.87.86,3.62,1.98,5.48,2.85.55.26,1.32.07,1.99.08-.32-.52-.56-1.11-.97-1.56-.43-.47-1-.79-1.81-1.4,2.75-.48,5.79.44,7.21-2.56.26-.55.04-1.33.04-2.49-2.29,2.15-4.42,3.04-7.05,2.97-1.65-.04-3.3.5-4.96.73-.97.14-1.82.08-2.08-1.19-.05-.27-.97-.67-1.05-.58-2.24,2.29-3.99.43-5.82-.65-.05-.03-.07-.1-.2-.29,1.6-.77.68-1.82.16-2.79.72-.37,1.42-.6,1.95-1.03,1-.83,1.83-1.09,2.82.04.76.87,1.36.67,1.92-.41,1.26-2.42,2.58-2.72,4.85-1.28.9.57,1.76.96,2.5-.23.12-.2.35-.49.51-.49,2.19.11,3.34-2.17,5.32-2.34,1.1-.1,2.25.38,3.68.65.62-.94,1.59-1.61,2.91-.02.28.33,1.17.28,1.75.22,2.17-.23,4.32-.6,6.49-.79.67-.06,1.46.18,2.03.54.97.59,1.75.72,2.61-.15,1.16-1.19,2.28-1.13,3.48.09.36.36,1.25.55,1.73.37,2.31-.86,4.24-.8,6.19,1.09.7.68,2.41.34,3.64.47-1.01,1.55-2.81,2.12-4.67,2.45-1.8.31-3.65.31-5.46.59-.59.09-1.12.61-1.68.94.68.22,1.35.59,2.04.64,1.05.07,2.11-.07,3.17-.13.02.24.03.47.05.71-.57.1-1.17.12-1.71.33-1.29.5-2.54,1.09-3.8,1.64-1.5.65-3.04,1.2-4.48,1.97-1.07.57-2.24,1.24-2.94,2.18-.71.96-1.2,1.53-2.47,1.17-.86-.24-1.75-.27-2.23.96-.17.42-1.22.61-1.9.7-1.09.13-2.21,0-3.29.16-.71.1-1.37.52-2.05.8.02.27.05.54.07.8,1.54.13,3.09.26,4.63.39-.34,2.45-1.69,3.84-3.71,3.79-2.57-.06-2.64.04-1.7,3.01-1.86,0-3.57,0-5.29,0-.74,0-1.82-.39-1.66.92.05.38.96.82,1.53.92,1.32.23,2.68.27,4.02.83.15-.09.29-.2.45-.25.4-.13.83-.36,1.21-.31.2.03.54.66.45.85-.18.38-.56.74-.94.91-.59.27-1.27.33-1.88.56-1.44.53-2.67.87-4.12-.4-1.58-1.38-4-.97-5.66.17-.54.37-1.65.55-2.15.25-1.8-1.1-3.71-.78-5.61-.83-.51-.01-1.02-.16-1.62-.26q.65-1.01,4.61-1.66c.91-1.98-1.84-1.37-1.93-2.91,1.32-.42,2.52-.4,3.59.65.39.38.72.81,1.07,1.22,1.1,1.27,1.57,1.23,2.87-.45-.82-.71-1.66-1.44-2.59-2.24.48-.6,1.09-1.34,1.69-2.08-.07-.15-.14-.29-.22-.44-1.82.54-3.41,2.75-5.5.97.32-.87,3.24-2.5,4.41-2.17,1.68.47,3.29,1.17,4.93,1.77.18-.15.36-.29.55-.44Z"/><path class="cls-1" d="m243.94,77.27c-1.83-1.02-4.09-.54-5.82,1.1-1.34-.28-2.38-.55-3.43-.7-1.79-.25-3.84.68-5.25-1.25-.11-.15-.69-.07-1,.04-1.65.56-2.79-.11-3.98-1.62h4.08c-.55-1.69-1.87-1.69-2.99-1.88-1.97-.32-2.41-.83-2.11-2.77.65-4.22,3.84-6.71,8.51-5.92-.41.22-.96.34-1.19.69-.74,1.09-2.85,1.88-.91,3.72.26.25,0,1.05-.02,1.6-.09,1.95,1.91,3.3,4.1,2.44-.84-.74-1.57-1.38-2.4-2.11,1.04-.46,1.8-.83.69-2.03-1.19-1.3-.48-2.74,1.28-3.22.84-.23,1.66-.65,2.38-1.15,1.21-.84,2.47-.69,3.23.6.7,1.19,1.56,2.33.67,3.88-.24.42.18,1.23.3,1.86.49-.2,1.06-.3,1.46-.62,1.09-.86,1.97-.61,2.95.88.4-3.23,2.54-2.54,4.32-2.56.97,0,1.86.12,1.85,1.46,0,.29.52.86.74.83,1.53-.18,2.02,1.11,2.57,1.96.74,1.15,1.24,1.07,2.13.29.39-.34.99-.43,1.5-.63.13.18.26.36.38.54-.71.69-1.41,1.37-2.62,2.54.98,0,1.7.22,2.09-.04,1.8-1.2,2.09-1.16,2.75.9,1.03-.14,2.09-.27,3.14-.41-.11.95-.21,1.76-.33,2.79,1.3-.27,2.12-2.24,2.9-.15-.55.62-1.06,1.2-1.79,2.03,1.11.18,1.81.3,2.68.44-.31.28-.39.41-.49.43-.79.17-1.59.31-2.39.47.54.71.93,1.71,1.64,2.08,1.44.74,3.08,1.11,4.61,1.69.66.25,1.37.53,1.87,1,1.33,1.27,2.56,2.65,3.55,3.68-1.48,1.58-2.66,2.83-3.99,4.25-.37-.48-.81-1.31-1.48-1.89-1.12-.97-2.32-1.88-3.61-2.61-.32-.18-1.37.28-1.63.72-1.02,1.72-.74,3.74,1.1,4.44,2.62.99,3.08,3.6,4.92,5.07-1.68,1.81-3.14,1.93-4.49.27-1.06-1.3-2.21-1.12-3.7-.71,1.79,1.62,3.42,3.09,5.04,4.56-.08.1-.16.2-.24.3-1.7-.58-3.4-1.16-5.11-1.74-.61-.2-1.21-.45-1.83-.56-1.41-.26-2.36-.52-2.94-2.33-.5-1.56-2.44-2.66-3.78-3.92-.17-.16-.73-.17-.88-.02-1.57,1.55-3.8.2-5.5,1.28-.28.18-1.31-.26-1.49-.65-.17-.38.17-1.38.52-1.53.96-.41,1.83-.86,3.16-.37,1.13.42,2.74-.4,4.1-.77.1-.03.03-.95-.09-1.42-.17-.7-.83-1.65-.59-1.98.36-.5,1.43-.9,2.03-.73,1.19.34,2.27,1.07,3.36,1.68.46.26,1.16.97,1.24.9.78-.69,1.6-1.43,2.06-2.34.13-.26-.77-1.38-1.38-1.59-.81-.29-1.81-.16-2.72-.06-1.21.14-1.62-.26-1.63-1.5-.03-2.29-1.1-3.4-3.17-4.12-.93-.32-1.76-1.08-2.48-1.79-1.57-1.55-2.96-3.29-4.61-4.75-.7-.61-1.86-.7-2.81-1.03-.09.18-.17.37-.26.55.4.49.8.98,1.19,1.48Z"/><path class="cls-1" d="m194.02,67.5c-.23,1.4-.06,2.67,1.07,3.69.26.24.58.64.54.93-.34,2.47,1.63,2.79,3.17,3.56,1.22.62,2.39,1.35,3.71,2.1-1.8.48-3.13.84-4.47,1.2l-.03.74c.72.12,1.44.24,2.16.36.89.36.91,1.04.01,1.72-.99.74-3.6.73-4.62.05-.99-.66-2.02-1.27-3.09-1.79-.3-.15-.83-.02-1.18.15-3.27,1.51-6.6,2.73-10.27,2.73-1,0-1.67-.27-1.71-1.39-.05-1.28-.83-1.59-1.97-1.61-1.33-.03-2.68-.14-3.98-.39-.46-.09-.82-.72-1.23-1.1.5-.24.98-.66,1.5-.69,2.44-.16,4.89-.21,7.33-.34.42-.02.83-.25,1.24-.38.02-.24.03-.48.05-.72-1.92-.44-3.82-1.06-5.77-1.29-1.93-.23-3.9,1.18-5.99-.04.95-2.32,3.88-.39,4.93-2.51-1.07-.55-1.95-.86-3.27-.23-.78.37-2.04-.25-3.13-.43.89-4.67,5.29-4.55,7.89-6.8q1.14,2.24-1,3.36c1.32.33,2.23.56,3.3.83.07-.83.12-1.41.18-1.99,2.12-.84,2.75-.4,3.38,2.26.68-.06,1.36-.1,2.02-.19.44-.06.88-.19,1.31-.3-.24-.42-.46-.86-.75-1.25-.12-.17-.38-.24-.63-.39,1.25-.53,2.77.55,3.18,2.15.16.64.18,1.42.56,1.88.37.44,1.13.54,1.72.78.05-.54.26-1.11.13-1.6-.37-1.41-.87-2.78-1.36-4.3,1.35-.55,2.59-.63,3.74.58.34.36.91.49,1.38.72l-.03-.04Z"/><path class="cls-1" d="m613.68,249.39c-1.04.19-1.5.28-1.96.36-1.05.19-1.62.69-1.49,1.88.12,1.08.12,2.01-1.03,2.86-.62.45-.55,1.89-.71,2.89-.28,1.72-1.42,2.39-2.96,1.56-1.28-.69-2.5-1.11-3.99-.6-.4.14-1.06-.5-1.86-.92-.25.12-.77.36-1.23.57-1.45-2.92-2.86-5.76-4.33-8.72,1.11-.75,1.88-2,3.45-.57.7.64,1.74.25,1.67-.99-.08-1.38.43-1.87,1.8-1.75,1.89.17,1.94-1.61,2.44-2.7.48-1.06.6-1.35,1.39-.24.49.69,2.01-.21,2.43-1.36.4-1.09.76-2.22,1.37-3.19.22-.35,1.58-.45,1.62-.36.68,1.79,2.39,1.97,4.22,2.51-1.78.76-3.18,1.37-4.39,1.89.1,2.52.09,5.31,3.56,6.89Z"/><path class="cls-1" d="m484.45,276.17c.54,2.39,1.05,4.63,1.54,6.76-.95.04-1.57.07-2.2.1.1.6.28,1.2.28,1.81,0,.48-.34.97-.3,1.43.28,3.03-1.25,5.47-2.49,8.02-.23.48-.51,1.06-.44,1.55.46,3.05-1.74,4.95-3.13,7.15-.36.56-1.63,1-2.28.81-.88-.26-1.98-.73-1.81-2.27.14-1.3-.21-2.66-.35-4-.16-1.5.04-2.8,1.31-3.9.93-.8,1.09-1.8-.07-2.86-.57-.52-1.09-1.79-.84-2.37.67-1.53-.58-4.22,2.62-4.42,1.09-.07,2.1-1.11,3.2-1.6,1.17-.53,2.19-1.09,1.91-2.65-.04-.21.07-.52.22-.68.79-.85,1.62-1.67,2.81-2.89Z"/><path class="cls-1" d="m500.09,75.46c-3.97,1.15-5.8.31-7.23-3.28-.48.36-.92.7-1.36,1.03.13-.13.27-.27.4-.4-.53-.53-1.06-1.05-1.89-1.88.19-1.05,3.51-1.02,2.56-3.67,1.27-.95,3.05-1.63,3.02-3.8,0-.24.25-.66.46-.71,2.41-.63,2.41-3.11,3.69-4.61.53-.08,1.36.04,1.67-.31,1.71-1.9,3.97-2.67,6.31-3.27,1.04-.26,2.17-.22,3.21-.48.99-.25,1.91-.76,2.89-1.06,2.4-.74,4.81-1.45,7.24-2.09.37-.1.86.27,1.3.43-.2.46-.3,1.03-.63,1.35-.51.49-1.14.94-1.8,1.17-2.53.88-5.13,1.57-7.62,2.53-1.77.68-3.38,1.76-5.11,2.55-1.72.78-3.47,1.52-5.27,2.06-1.86.56-2.55,1.61-2.78,3.55-.17,1.47-.94,3.09-1.94,4.18-.87.94-.77,1.57-.26,2.35.96,1.45,2.02,2.83,3.14,4.37Z"/><path class="cls-1" d="m211.39,34.26c1.11-.24,1.81-.36,2.49-.54.44-.12.87-.31,1.3-.47-.18-.47-.37-.94-.54-1.36.48-.18,1.1-.38,1.71-.63.98-.39,1.75-.4,2.59.5.71.76,1.83,1.11,2.71,1.73,1.06.74,2.15,1.48,3.07,2.37.89.86,1.52,1.15,2.13-.18.18.92,1.46,1.57.83,2.85-.02.05.65.58,1.05.67.85.19,1.74.24,2.68.57-2.53,1.22-5.73,1.59-5.72,4.84-1.3.24-2.39.51-3.49.61-.68.06-1.5.06-2.05-.26-1.48-.87-2.84-1.92-4.46-3.05,1.43-.59,2.51-1.03,3.59-1.48.05-.2.09-.39.14-.59-.54-.2-1.07-.53-1.61-.56-.72-.04-1.45.17-2.17.26-2.42.32-3.5-.25-4.7-2.49-.03-.06.1-.2.12-.24h3.09c0-.16,0-.32,0-.48-.8-.6-1.6-1.2-2.77-2.08Z"/><path class="cls-1" d="m383.62,138.96c.93-1.1,1.53-2.28,3.19-2.13.44.04.94-.66,1.42-1.02-.09-.14-.19-.28-.28-.42-1.5-.15-3-.3-4.5-.45-.04-.11-.08-.23-.12-.34.8-.43,1.6-.85,2.61-1.4-.46-.29-.81-.4-.99-.64-.2-.28-.37-.7-.3-1.01.04-.2.53-.33.83-.44.68-.25,1.85-.32,1.98-.73.3-.94,1.02-2.3-.66-2.72.09-.71.16-1.31.24-1.91-.58.1-1.16.22-1.74.29-.45.06-.92.06-1.22.07.22-1.23.42-2.33.62-3.44l-.91-.68c-.27.55-.54,1.09-.81,1.63-.45-.67-.96-1.42-1.58-2.34,1.49-2.13,1-6.04,5.29-5.78-.3.34-.72.72-1.02,1.18-.28.41-.43.91-.63,1.37.47.08.94.22,1.41.22,1.01,0,2.02-.09,2.86-.13-.86,1.74-1.67,3.38-2.32,4.69,3.68,2.56,5.22,5.84,6.66,9.51.71.1,1.71.25,2.76.41-1.02,1.06-1.82,1.9-2.77,2.88.59.3.94.49,1.76.91-1.82.42-3.27,1.04-4.71,1.02-2.01-.03-4.01-.52-5.7,1.04-.17.16-.44.22-.67.29-.16.05-.34.03-.69.06Z"/><path class="cls-1" d="m174.55,64.48c-1.58.63-3.16,1.26-4.74,1.89-.23.09-.62.18-.64.3-.33,2.69-4.08,3.06-3.89,5.85-1.64.49-3.11.93-4.59,1.37q-1.04-2.98-4.95-3.72c.61-.71,1.17-1.35,1.72-1.99.25-.3.7-.63.69-.93-.03-2.03,1.48-3.14,2.54-4.52.39-.5.61-1.46,1.03-1.53,1.06-.18,2.22-.12,3.28.11,1.35.29,2.88,1.5,3.92,1.13,2.42-.86,3.73.86,5.53,1.39.03.22.07.45.1.67Z"/><path class="cls-1" d="m491.07,215.51q-1.37-3.68,2.48-5.11c1.55-.57,3.12-2.81,3.04-4.46-.06-1.35-.99-1.75-2.15-1.66-1.73.13-3.27-.23-4.54-1.46-.38-1.02.17-1.36,1.06-1.33,2.74.08,4.59-1.14,5.64-3.67.11-.26.66-.6.8-.52.32.17.74.59.73.9-.02.64-.29,1.27-.46,1.96,1.33.69,2.77,1.41,4.19,2.18,1.6.86,1.89,2.26.79,3.7-.71.92-1.46,1.81-2.15,2.73-.29.38-.77.9-.69,1.24.39,1.71-.63,2.74-1.79,3.46-1.8,1.1-3.75,1.96-5.69,2.8-.26.11-.83-.48-1.26-.75Z"/><path class="cls-1" d="m427.27,150.33c2.35-1.57,3.4-1.12,4.97.95,2.87,3.8,3.95,5.35,9.11,3.78,1-.3,2.12-.17,3.19-.24.07.53.39,1.22.17,1.55-1.41,2.11-1.23,3.42.85,4.98.17.13.35.25.41.29-1.14.47-2.26.85-3.29,1.39-1.2.63-1.61-.19-2.11-.95-1.63-.46-3.26-.91-4.89-1.37-.68-.74-1.31-2.05-2.04-2.1-1.24-.08-2.78.17-3.38,1.75l-.08-.02c-.94-.75-2.58-.61-2.84-2.23,2.24-3.73,2.23-4.85-.06-7.78Z"/><path class="cls-1" d="m569.36,240.63c1.22.12,2.17.07,3.02.34.63.2,1.16.78,1.67,1.26,1,.95,1.89,2.01,2.93,2.91,2.18,1.89,4.45,3.69,6.64,5.57.55.47,1.36,1.01.32,1.86-.11.09,0,.72.2.91,1.2,1.13,2.43,2.23,3.71,3.27.34.28.9.28,1.7.52-.4-.87-.61-1.34-.83-1.8.11-.06.22-.13.33-.19.37.63.73,1.25,1.1,1.88-.21,0-.42.01-.62.02-.33.93-.69,1.85-.97,2.79-.14.46-.06.99-.21,1.44-.22.63-.57,1.21-.86,1.81-.64-.39-1.35-.69-1.91-1.17-3.24-2.84-4.87-6.83-7.33-10.23-2.68-.52-1.99-3.62-3.86-4.96-1.7-1.21-2.81-3.24-4.17-4.92-.26-.32-.47-.69-.86-1.28Z"/><path class="cls-1" d="m673,273.16c-2.37-1.27-5.89.16-7.34-3.52-.47-1.21-2.33-2.05-3.74-2.62-.46-.19-1.53.95-2.24,1.58-.44.39-.63,1.07-1.08,1.42-1.36,1.03-3.03.38-3.07-1.25v-.2c-1.78-.27-4.23-.55-6.13-.88.79-.53,1.5-1.01,2.51-1.68-.99-1.36-1.86-2.86-3.06-4.04-.71-.7-1.94-1.22-2.93-1.2-1.93.03-3.02-1.25-4.24-2.11-.75.38-1.42.71-2.1,1.04-.14-.69-.29-1.39-.47-2.23.89-.27,1.88-.58,2.88-.88-.03-.15-.05-.3-.08-.45-1.73-.49-3.47-.98-5.37-1.52,1.96-2.09,3.94-2.56,5.04-1.18.68.85.94,2.07,1.21,3.17.53,2.08,1.01,2.32,2.76,1.12.59-.4,1.37-.7,1.72-1.26,1.32-2.12,2.48-1.46,4.04-.2.89.72,2.26.83,3.34,1.07,3.49.79,7.58,2.5,9.75,5.46.69.94,2.25,1.25,3.62,1.94-.7.27-1.26.49-2.31.89,2.56,2.64,4.93,5.09,7.29,7.53Z"/><path class="cls-1" d="m210.85,51.1c1.37-1.29,2.71-.86,4.13-.35,1.46.52,2.99.89,4.5,1.27,1.49.38,3,.7,4.88,1.13-.67.51-1.03.71-1.29,1.01-.21.25-.47.65-.4.9.08.26.49.47.8.59.91.37,1.85.69,3.04,1.12.92,0,2.18.05,3.45-.02.77-.04,1.55-.19,2.29-.43,3.03-.98,6.02-.74,8.99.26.31.11.55.44,1.19.98-1.62.88-3.02,1.65-4.42,2.4-.09.05-.3.06-.35,0-1.53-1.71-2.72-.15-4.19.2-2.05.49-4.31.16-6.47.15-.14,0-.34-.17-.42-.31-.84-1.66-1.69-1.32-2.74-.14-.57.63-1.18.24-2.01-.03-2.29-.76-2.46-2.17-2.4-4.19.06-1.76-2.08-2.88-3.77-2.63-.96.14-2.05-.36-3.02-.72-.58-.21-1.06-.7-1.78-1.2Z"/><path class="cls-1" d="m431.95,41.89c-1.2.34-2.5.39-3.31,1.05-.73.59-.94,1.84-1.34,2.82-.13.32,0,.9-.21,1.02-1.92,1.18-2.55,3.1-2.92,5.75-1.7-1.63-3.04-2.9-4.66-4.45,1-.22,1.88-.54,2.78-.58.93-.04,1.96.41,2.47-.86-2.01-2.33-3.95.67-6.25,0,2.04-1.21,4.09-1.91,5.86-3.28-1.35-.6-2.2-.97-3.27-1.44-.55.68-1.13,1.76-2.03,2.36-.53.35-1.62.09-2.36-.17-.82-.29-1.54-.91-2.35-1.41,1.18-1.1,1.74-1.61,2.7-2.5h-2.92c.23-.77.43-1.45.51-1.75,1.36-.11,2.29-.18,2.9-.23.67.78,1.29,1.49,2.11,2.45.3-1.06.51-1.82.76-2.69,1.61,1,1.47,3.54,3.93,3.72-.54-1.45-1-2.71-1.61-4.36,1.1.16,2.05.29,2.83.4-.06.91-.12,1.7-.18,2.5.17.04.34.09.51.13.31-.37.62-.75.63-.76,1.84.78,3.52,1.48,5.42,2.28Z"/><path class="cls-1" d="m351.2,90.86c.46.59,1.24,1.15,1.31,1.78.09.89.06,1.8,1.14,1.51.66-.18,1.11-1.1,1.65-1.7.07-.08.1-.21.06-.11,1.36-.2,2.66-.69,3.82-.47,1.32.26,2.31.44,2.68-.69,2.03,1.15,3.91,2.21,5.79,3.28-1.24,1.92-3.45,1.43-5.28,1.94-.68.19-1.72.35-1.91.81-1.05,2.48-3.18,2.16-5.15,2.12-1.51-.04-3.01-.38-4.78-.62.86-.28,1.57-.51,2.27-.74.04-.21.09-.42.13-.63-1.26-.46-2.53-.93-3.79-1.39.07-.07.13-.2.19-.2,1.2-.06,2.9.16,2.71-1.56-.19-1.69-1.77-.43-2.71-.6-.45-.08-.91-.07-1.58-.12.56-.7.95-1.19,1.42-1.78.56-.03,1.92,1.61,2.03-.82Z"/><path class="cls-1" d="m636.79,179.23c2.67-3.03,5.97-4.13,8.84-2.86.78-1.46,1.57-2.95,2.45-4.58.39.3.69.52,1.02.77,2.11-1.06,3.78-2.62,4.5-5.03.12-.41.14-.89.06-1.31-.34-1.82.74-2.77,2.2-3.91.55,1.61,1.11,2.91,1.41,4.27.1.47-.27,1.35-.69,1.59-1.33.77-1.66,1.82-1.41,3.24.18,1.03.11,1.85-.98,2.63-1.75,1.25-3.23,2.87-4.84,4.34-.76-.41-1.36-.74-2.1-1.14-.13.56-.12,1.02-.33,1.34-.37.57-.87,1.05-1.32,1.57-.22-.54-.53-1.07-.65-1.64-.26-1.25-2.6-1.71-4.23-.8-.84.47-1.68.94-2.55,1.35-.3.14-.7.1-1.38.17Z"/><path class="cls-1" d="m171.98,57.69c1.13-.23,2.26-.46,3.39-.69l-.05-.43c-.78-.15-1.57-.29-2.35-.44,0-.12-.01-.23-.02-.35.82-.06,1.65-.12,2.83-.2-.74-.57-1.22-.95-1.7-1.33.43-.46.78-1.06,1.3-1.34.5-.27,1.24-.39,1.76-.23.91.28,1.77.78,2.61,1.26.87.5,1.85.95,2.51,1.67,1.52,1.65,3.29,1.73,5.32,1.33-.72-1.22-1.42-2.28-1.96-3.41-.15-.33.04-1.13.31-1.28.36-.2,1.12-.16,1.42.11.89.79,1.69,1.69,2.41,2.63.65.85,1.18.88,1.95.17.29-.27,1.11-.5,1.16-.41.3.47.7,1.12.58,1.58-.29,1.15-.89,2.16-2.36,2.09-.49-.02-.98.07-1.47.03-2.55-.22-4.91.08-7.01,1.82-1.47,1.22-3.22,1.16-5.33.11,2.25-.64,4.37-.7,5.69-2.36-.05-.21-.1-.43-.15-.64-1.29.2-2.57.4-3.77.58-.2-.42-.47-.96-.73-1.51-.47.33-1.02.6-1.39,1.02-1.53,1.73-3.27.43-4.89.66-.02-.15-.05-.29-.07-.44Z"/><path class="cls-1" d="m705.88,354.3c-1-.77-1.85-1.13-2.16-1.77-.18-.36.39-1.3.86-1.73,2.11-1.96,4.44-3.7,6.41-5.78,1.13-1.19,1.81-2.84,2.54-4.35.39-.8.51-1.39,1.45-.51.3.28.91.29,1.39.33,1.41.13,2,1.09,1.19,2.26-.69.99-1.63,1.81-2.42,2.74-1.31,1.52-2.46,3.21-3.91,4.58-1.59,1.51-3.45,2.74-5.36,4.22Z"/><path class="cls-1" d="m265.92,151.96c-.21-1.3-.42-2.59-.64-3.89-.28-1.69-1.93-1.33-2.93-1.94.31-.53.49-1.29.95-1.55,1.31-.75,2.71-1.34,4.11-1.9,1.07-.43,1.96.12,1.46,1.15-1.17,2.43.9,3.58,1.9,4.93,1.25,1.7,3.16,2.83,5.65,2.79-.9.56-1.74,1.29-2.71,1.65-1.32.48-2.64.79-3.33,2.25-.13.27-1.07.45-1.39.26-.33-.2-.64-1.15-.47-1.33.59-.66,1.33-1.29,2.14-1.64.6-.26,1.39-.05,2.53-.05-.84-1.03-1.33-1.77-1.97-2.35-.23-.21-.88-.14-1.24.02-1.27.55-2.5,1.19-3.75,1.79-.06.03-.2-.12-.3-.18Z"/><path class="cls-1" d="m206.41,73.21c-2.27-1.99-4.44-3.9-6.62-5.81.07-.23.14-.46.21-.68,1.86,1.19,4.02,2.25,4.87-.38.6-1.86-2.05-.53-2.64-1.9.53-.28,1.12-.81,1.76-.87,1.19-.13,2.66.99,3.37-.9l2.19.94c0,.19-.01.38-.02.58-.55.23-1.19.35-1.61.73-.35.32-.7,1.26-.59,1.36,1.03.84,2.16,1.54,3.37,2.36-.12,1.32-.44,2.48-2.4,2.63-.67.05-1.25,1.27-1.89,1.98Z"/><path class="cls-1" d="m427.27,150.33c2.29,2.93,2.3,4.05.06,7.78-.36-.03-.88.09-1.05-.11-1.15-1.31-3.02-1.55-4.17-2.78-.88-.95-1.52-2.12-2.29-3.23.28-.14.6-.3.92-.45l1.24-1.34c1.09-1.18,2.1-2.69,3.6-.34.23.37,1.11.32,1.69.47Z"/><path class="cls-1" d="m287.23,136.31c-.6,1.32-1.2,2.65-1.58,3.51,1.12.7,1.93,1.32,2.84,1.73.77.36,1.65.48,2.58.54.24.56-1.54,2.31,1.08,1.99-.21.38-.44.79-.72,1.31.6.23,1.07.42,1.67.65-.25.6-.47,1.12-.68,1.63-1.82-1.13-3.43-2.25-5.15-3.13-.62-.32-1.56-.26-2.27-.07-1.12.3-2.16.86-3.38,1.15.86-1.26.26-2.93,1.98-4.01,1.15-.73,1.38-2.85,2.14-4.29.27-.51.86-.85,1.31-1.27.06.09.12.18.19.27Z"/><path class="cls-1" d="m240.54,99.66c-1.29.72-2.38.53-3.28-.66-.89-1.17-1.63-1.13-2.58.05-.73.91-1.8,1.55-3.08,2.6.03-2.53-1.41-2.04-2.25-1.91.32-1.18.62-2.38.98-3.57.34-1.12.73-2.22,1.06-3.21,3.35,2.08,6.87,3.42,9.16,6.69Z"/><path class="cls-1" d="m204.92,55.4c-2.41,0-4.63,1.76-6.49-.5-.79-.96-1.67-1.84-2.34-2.91,3.07-.7,3.01,2.59,5.34,3.59-.09-1.03-.15-1.83-.23-2.73,1.14.58,2.3,1.18,3.46,1.77.09-.15.18-.3.26-.44-.69-.96-1.38-1.93-2.23-3.11,1.89.21,2.76,2.88,4.73.93.6,1.14,1.63,1.92.97,3.42-.25.56.28,1.46.51,2.47-1.33.27-2.6.57-3.89.77-.33.05-.88-.17-1.01-.43-.14-.27.06-.75.19-1.11.17-.51.42-.99.72-1.71Z"/><path class="cls-1" d="m435.67,160.71c1.63.46,3.26.91,4.89,1.37-.42.06-.84.17-1.25.17-1.36-.02-2.57.13-2.46,1.97-.88-.41-1.61-.74-2.32-1.07-1.11,1.83,2.75,2.83-.18,4.87,1.62.07,2.57.12,3.52.16l.03.68c-.88.16-1.75.33-2.79.53v3.86c-1.11-1.33-1.99-2.39-3.07-3.68,1.2-.32,1.92-.51,2.73-.72-.58-1.7-1.68-1.38-2.99-.88-.39-1.11-.75-2.16-1.12-3.21.48-.48.96-.97,1.44-1.45,1.19-.87,2.39-1.73,3.58-2.6Z"/><path class="cls-1" d="m442.06,37.93c-1.71.79-3.41,1.6-5.13,2.37-.19.08-.47-.04-.71-.08-1.33-.23-2.65-.46-3.98-.68-.56-.09-1.12-.17-2.09-.33,1.57-.54,2.69-.92,3.81-1.3-.01-.21-.03-.42-.04-.63-.58-.1-1.16-.29-1.74-.28-.53.02-1.06.27-1.59.4-2.39.6-2.53.52-3.7-2.25.65.43,1.09.72,1.52,1.01,2.27-1.57,4.32.07,6.62.42-.05-.46-.1-.88-.13-1.17,2.3.56,4.66,1.14,7.01,1.71.05.27.1.54.15.81Z"/><path class="cls-1" d="m380.19,128.39c1.41,1.4,1.23,3.07.52,4.62-.63,1.38-4.45,1.99-7.07,1.25.5-.53.91-.98,1.35-1.42.42-.42.86-.83,1.32-1.27-.81-1.03-2.66-1.44-1.5-3.44.88.08,2.07.19,3.26.31.71-.01,1.42-.03,2.12-.04Z"/><path class="cls-1" d="m579.59,238.5c.14,0,.27,0,.41,0,2.08-.29,3.9,1.23,4.09,3.57.13,1.63.02,3.29.02,5.06-1.09-.12-2.04-.6-3.02-1.87-1.39-1.79-2.62-3.47-2.71-5.8-.04-.94.13-1.5,1.21-.96Z"/><path class="cls-1" d="m575.04,38.23c.58-.46,1.04-.82,1.57-1.24,1.23.78,1.87,1.57.66,3.01-.44.53-.44,1.43-.71,2.4-2.17-.45-4.55-.38-6.47-1.99-1.18-.99-1.06-2,.29-2.88,2.25-1.45,3.43-1.33,4.65.69Z"/><path class="cls-1" d="m620.52,260.54c-.62.18-1.14.33-1.99.58-.45-1.15-.84-2.3-1.35-3.39-.14-.31-.62-.59-.97-.62-.23-.02-.72.42-.72.65-.01,1.02-.18,2.18.26,3.01.61,1.18.3,1.89-.67,2.95v-4.7c-.54-.12-1.05-.13-1.44-.35-.31-.18-.72-.71-.65-.93.56-1.58,1.24-3.12,1.87-4.67,1.88,1.85,1.85,1.8,4.2.37.66-.4,1.55-.44,2.33-.64.09.17.17.34.26.52-1.1.74-2.2,1.48-3.19,2.14.64,1.56,1.31,3.21,2.07,5.07Z"/><path class="cls-1" d="m444.62,113.63c-.1.65-.33,1.31-.29,1.95.15,2.41-.78,3.12-3.07,2.25-.34-.13-.68-.27-1.02-.41-.94-.54-1.91-1.05-2.83-1.63-1.05-.67-.99-2.61.13-2.69,2.34-.17,4.72.1,7.08.2,0,0,0,.22,0,.33Z"/><path class="cls-1" d="m654.71,160.97c-.34-.45-.69-.9-1.24-1.63.89-.53,1.76-1.01,2.59-1.55.29-.19.66-.47.72-.76.28-1.5.47-3.02.69-4.52,1.03.91,2.01,2.29,3.33,2.81,1.28.5,2.9.11,4.62.11-1.64.92-2.15,3.06-4.41,2.89-.4-.03-.88,1.04-1.4,1.69-1.62-.65-3.2-2.41-5.19-.64.24.51.44.94.64,1.37-.12.08-.23.16-.35.24Z"/><path class="cls-1" d="m206.05,45.59c-.51.42-.92.76-1.48,1.22-1.1-.75-2.2-1.71-3.47-2.28-.83-.37-1.91-.24-2.87-.21-.97.03-1.94.23-2.91.35-.04-.21-.09-.42-.13-.63.56-.17,1.13-.3,1.67-.52.44-.18.84-.48,1.25-.73-.37-.35-.68-.88-1.12-1.03-.95-.31-1.97-.43-3.03-.64,1.89-1.72,4.57-1.42,5.82.41,3.07-.12,4.69,1.78,6.3,4.04Z"/><path class="cls-1" d="m236.35,203.63c2.14-.72,4.34-.23,6.39.82,1.58.81,2.99,1.96,4.53,2.87.5.29,1.2.48,1.76.39,1.63-.27,2.63.5,3.69,2.07-1.84.15-3.45.29-5.07.41-.17.01-.48-.09-.49-.17-.26-1.63-2-1.76-2.76-2.72-1.03-1.29-2.18-1.31-3.52-1.45-.75-.08-1.48-.54-2.18-.89-.77-.39-1.51-.85-2.34-1.32Z"/><path class="cls-1" d="m577.53,45.87c1.05-1.37,2.07-2.72,3.1-4.07.53-.69,1.04-1.12,1.95-.41.51.4,1.23.63,1.88.72,1.48.21,2.98.29,4.44.67-3.59,2.15-7.21,3.78-11.38,3.1Z"/><path class="cls-1" d="m619.1,237.33c.49-2.02,1.96-2.88,3.95-2.48.37.08.93-.31,1.27-.62.83-.78,1.58-1.64,2.37-2.46.06-.06.23,0,.35,0,.25.86.6,1.71.72,2.58.12.88.03,1.78.03,2.75h-2.15c.12,1.05.23,1.99.37,3.19-1.23-.55-2.48-.9-2.81-2.47-.16-.78-.31-1.57-.46-2.36-.95.51-1.93,1-2.85,1.57-.19.12-.18.55-.27.84-.18-.18-.36-.36-.53-.54Z"/><path class="cls-1" d="m165.95,55.31c-.59-2.23-1.95-.54-3.05-.36-.05-.22-.1-.43-.15-.65.8-.4,1.64-.74,2.38-1.22.59-.38,1.33-.85,1.54-1.45.78-2.17,2.37-2.88,4.57-2.18.57.18,1.46-.65,2.61-1.22.69.21.61,2.37-.72,3.54-.47.41-.92.85-1.54,1.42-.09-.52-.04-1-.23-1.12-.5-.32-1.11-.49-1.67-.73-.42,2.01-2.75,2.22-3.73,3.97Z"/><path class="cls-1" d="m620.67,223.68c-1.27-.36-2.55-.72-3.85-1.09-.26-.92-.86-1.97-.79-2.99.13-1.93.58-3.84,1.04-5.73.06-.26.91-.49,1.39-.48,1.82.05,1.28,1.93,1.98,2.87.21.27-.72,1.43-1.17,2.16-.4.65-1.32,1.46-1.17,1.88.33.88,1.21,1.56,1.89,2.29.23.24.55.4.82.6-.05.16-.1.32-.15.48Z"/><path class="cls-1" d="m719.51,331.13h1.82c-.2,1.71.96,2.28,3.24,2.26-2.1,1.78-4.67,2.6-3.38,5.94-1.92-1.27-3.23-2.14-4.95-3.28,2.8-.74,2.08-3.42,3.26-4.92Z"/><path class="cls-1" d="m658.85,58.87c-1.92,0-3.48,0-5.05,0-.24,0-.58-.01-.69.12-.75.91-1.7.9-2.34.14-.41-.49-.53-1.45-.39-2.12.24-1.17,1.1-1.83,2.37-1.77.18,0,.38,0,.54.07,1.25.53,2.5.85,3.89.95.58.04,1.04,1.56,1.67,2.61Z"/><path class="cls-1" d="m602.99,266.34c-1.42.36-2.83.86-4.27,1.04-.84.1-1.77-.23-2.59-.54-.84-.32-1.4-.84-2.41.04-.47.41-1.92-.16-2.87-.47-.74-.25-1.38-.79-2.06-1.2,1.05-1.65,2.35-1.99,4.21-.92,1.58.91,3.09,1.52,5.12,1.06,1.42-.32,3.08.44,4.64.71.08.09.16.19.23.28Z"/><path class="cls-1" d="m245.23,233.58c-3.32-1.49-3.62-1.34-4.31,2.17-1.76-.65-3.52-1.29-5.29-1.95-.11-.04-.25-.11-.29-.21-.9-2.12-2.5-3.22-4.94-3.11,1.28-1.89,3.74-2,4.93-.46.52.67,1,1.39,1.6,1.99,1.3,1.31,3.28,2.32,5.06.43,1.6-1.69,2.29.4,3.24,1.12Z"/><path class="cls-1" d="m665.95,345.91c-1.18-2.22-2.18-4.11-3.29-6.2.43.05,1.16-.09,1.52.22.97.83,1.72.59,2.58-.09.91-.73,1.32-.49,1.78.65.75,1.84-.24,3.25-.87,4.71-.19.45-1.23.53-1.72.72Z"/><path class="cls-1" d="m658.67,148.43c-.42.55-.73.96-1.3,1.71.44-5.85,1.12-11.26.07-16.66-.04-.21.25-.49.65-1.21.73,3.36,1.37,6.26,1.98,9.05-2.33,2.84-2.29,5.56.17,8.37-.48-.38-.96-.77-1.58-1.26Z"/><path class="cls-1" d="m404.58,137.02c.4,1.06,1.14,2.14-.1,3.12-1.3,1.03-2.35.39-3.38-.53-.76-.68-1.61-1.28-2.42-1.92.66-1.28,1.45-2.36,3.16-1.98.91.44,1.82.87,2.73,1.31Z"/><path class="cls-1" d="m404.58,137.02c-.91-.44-1.82-.87-2.73-1.31-.02-.47-.21-1.02-.02-1.39.92-1.85,2.12-3.42,4.68-3.6.06.47.12.96.18,1.44-.7,1.62-1.4,3.24-2.11,4.86Z"/><path class="cls-1" d="m263.04,375.68c.17.55.34,1.11.5,1.64-.81-.23-1.58-.45-2.35-.67-.09.19-.18.37-.27.56-.26-.59-.53-1.18-.88-1.96-.34.48-.6.84-.7.98-.66-.38-1.3-.74-2.33-1.33,1.19-.27,2.15-.48,3.4-.76.26-.41.73-1.16,1.31-2.08-.79-.14-1.52-.26-2.25-.39.85-1.48,1.78-1.84,2.63-1.01.22.21.37.58.4.89.14,1.17.22,2.35.32,3.53.07.2.15.4.22.6Z"/><path class="cls-1" d="m566.56,32.39c2.09-.18,2.79,1.45,3.78,2.61.09.11-.36.87-.71,1.12-.67.49-1.63.69-2.16,1.28-1.41,1.6-1.86,1.66-3.37-.2.9-.06,1.72-.12,3.11-.22-.9-.71-1.33-1.06-1.77-1.4q1.69-.77,1.1-3.2Z"/><path class="cls-1" d="m431.01,43.93c.72-.33,1.36-.62,1.8-.82,1.77,1.19,3.61,2.43,5.43,3.66-.37.31-.99.84-1.61,1.36,0-.15,0-.29,0-.44h-4.09c2.92-2.14-1.31-2.32-1.53-3.75Z"/><path class="cls-1" d="m240.38,64.28c3.5-.56,6.64.28,7.95,2.2-.47.03-.91.18-1.23.05-1.17-.47-2.09-.24-2.97.65-.71.71-1.33.96-1.85-.36-.36-.9-1.18-1.62-1.9-2.54Z"/><path class="cls-1" d="m544.73,238.96q-2.99-2.55-1.38-6.41c2.43,2.77,2.98,4.05,1.38,6.41Z"/><path class="cls-1" d="m206.99,81.56c.52-1.16.95-2.12,1.44-3.22,1.07,1.03,1.98,1.97,2.97,2.8.24.2.83-.06,1.18.08.31.13.52.52.78.79-.29.16-.56.39-.87.46-.69.16-1.45.43-2.1.29-1.13-.24-2.2-.76-3.4-1.21Z"/><path class="cls-1" d="m257.34,211.49c.61-1.59,1.93-1.08,2.92-.77,1.1.34,2.07,1.1,3.02,2.1-.62.03-1.24,0-1.85.1-.83.12-1.67.28-2.47.52-.53.16-1,.49-1.49.74-.04-.62-.08-1.23-.12-1.85,0-.28,0-.56,0-.84Z"/><path class="cls-1" d="m213.44,43.24c0,1.16.18,2.42-.03,2.49-1.15.39-2.63.98-3.55.55-1.12-.53-1.81-2-1.36-3.73,1.55.69,2.76,2.63,4.94.7Z"/><path class="cls-1" d="m263.04,375.68c-.07-.2-.15-.4-.22-.6-.07-.95-.15-1.9-.27-3.41.81.59,1.48.81,1.57,1.19.49,1.98,1.62,2.86,3.67,2.59.35-.05.74.21,1.21.35-2.12.96-4.11,2.06-5.97-.11Z"/><path class="cls-1" d="m635.62,185.84c.08-.67.17-1.35.24-2.02.06-.62.11-1.25.17-1.87-.55.07-1.1.14-2.17.28.82-.8,1.33-1.71,1.99-1.84.62-.12,1.76.42,2.02.97.28.6-.13,1.58-.38,2.34-.27.82-.72,1.58-1.09,2.36-.26-.07-.51-.14-.77-.22Z"/><path class="cls-1" d="m210.89,58.74c3.49-3.03,4.36-1.77,5.76.19-1.06,1.35-2.79,1.31-5.76-.19Z"/><path class="cls-1" d="m665.98,57.45c2.8.41,5.61.81,8.49,1.23-1.15,1.6-6.3,1.15-8.55-.61.02-.21.04-.41.06-.62Z"/><path class="cls-1" d="m519.64,361.3c1.24-1.47,3.15-1.83,4.4-.74.36.31.7.96.61,1.36-.08.35-.73.75-1.18.83-1.29.23-2.99-.48-3.84-1.45Z"/><path class="cls-1" d="m294.28,80.7c-.69.13-1.59.59-2.03.32-.93-.58-1.93-1.41-2.31-2.38-.34-.88.64-1.71,1.57-1.18,1.12.63,2.02,1.66,3.02,2.51-.09.24-.17.49-.26.73Z"/><path class="cls-1" d="m663.52,56.68c-.39.35-.75.63-1.06.96-.5.51-.97,1.06-1.45,1.59-.51-.59-1.05-1.16-1.53-1.77-.25-.32-.38-.72-.6-1.16,1.67-1.45,3.13-.84,4.64.39Z"/><path class="cls-1" d="m248.31,88.58c-.6-1.5-1.26-2.45-1.21-3.36.02-.41,1.56-1.14,2.25-.99.65.14,1.66,1.49,1.49,1.88-.35.83-1.35,1.39-2.54,2.47Z"/><path class="cls-1" d="m380.19,128.39c-.71.01-1.42.03-2.12.04-.17-.76-.35-1.52-.54-2.37.83-.12,1.97-.3,3.58-.54.18.33.79,1.03.86,1.79.03.31-1.14.72-1.76,1.08Z"/><path class="cls-1" d="m409.29,167.72c-.1-1.56-.18-2.95-.3-4.77.23-.1.95-.4,1.68-.71,1.15,2.42.74,4.08-1.38,5.48Z"/><path class="cls-1" d="m184.51,46.11c.1.77.16,1.25.24,1.84-1.37,1.03-2.97,1.46-4.68-.1,1.22-1.93,3.02-1.89,4.44-1.75Z"/><path class="cls-1" d="m415.08,248.5c-.94.51-1.88,1.02-2.81,1.52-1.37-.26-.92-1.27-.61-1.93.48-1.02,1.39-1.84,2.59-1.35.44.18.56,1.15.83,1.75Z"/><path class="cls-1" d="m669.56,262.77c2.83,1.67,4.81-.21,6.91-1.61-1.93,4.03-4.41,4.62-6.91,1.61Z"/><path class="cls-1" d="m624.65,248.84c-.92,1.06-1.24,2.81-3.52,1.79-1.31-.58-3.42-1.16-4.75.73-.08.12-.45.04-.72.05.72-1.63,2.28-2.68,3.56-2.1,1.95.87,3.69,1.08,5.44-.46Z"/><path class="cls-1" d="m619.8,227.35q3.66,3.25.89,5.36c-.05-.26-.21-.55-.12-.68,1-1.49,1.47-2.68-1.14-2.68-.11,0-.21-1.27-.32-1.95.23-.02.46-.04.68-.06Z"/><path class="cls-1" d="m432.09,163.31c-.48.48-.96.97-1.44,1.45-.63.51-1.03.51-1.27-.4-.18-.68-.55-1.31-.84-1.99.52-.65,1.08-1.34,1.63-2.02,0,0,.08.02.08.02.61.98,1.23,1.97,1.84,2.95Z"/><path class="cls-1" d="m660.86,65.97c-1.69,0-2.96.06-4.22-.03-.38-.03-.74-.46-1.1-.71.3-.36.53-.88.92-1.06,1.52-.72,2.14-.46,4.41,1.8Z"/><path class="cls-1" d="m640.18,182.41c-1.24-2.51,1.32-2.22,1.75-3.48.05-.14,1.12.05,1.71.09.05.24.11.47.16.71-1.21.89-2.41,1.78-3.62,2.68Z"/><path class="cls-1" d="m257.34,211.49c0,.28,0,.56,0,.84-.19.92-.54,1.53-1.69,1.35-.47-.07-1,.3-1.51.39-.43.07-.88.01-1.32.01l-.02-.63c1.12-.1,2.23-.19,3.58-.31-.67-1.23-1.2-2.19-1.72-3.15.1-.11.21-.22.31-.33.78.63,2.5-.26,2.36,1.84Z"/><path class="cls-1" d="m594.78,213.48c.05-.95.1-1.89.15-2.75,1.29-.13,2.32-.23,3.35-.34.12.17.24.33.36.5-1.06.96-2.12,1.91-3.17,2.87-.23-.09-.46-.19-.69-.28Z"/><path class="cls-1" d="m616.26,205.08c.68-1.02,1.2-1.82,1.78-2.69-.38-.41-.72-.79-1.21-1.33.77-.68,1.45-1.28,2.24-1.97.58,2.19-1.09,5.81-2.81,5.99Z"/><path class="cls-1" d="m482.84,81.02c1.09-1.16,2.19-2.04,3.57-.67.16.16-.11,1.03-.41,1.35-1.27,1.33-2.37,1.19-3.16-.67Z"/><path class="cls-1" d="m489.15,33.43c-1.85.95-3.68,1.95-5.56,2.82-.4.18-1.02-.11-1.61-.58,2.32-.96,4.64-1.92,6.95-2.88.07.21.14.43.22.64Z"/><path class="cls-1" d="m432.9,124.75c.61.24,1.31.37,1.8.75.42.33.61.95.91,1.45-.5.19-.98.47-1.49.54-.59.08-1.2-.04-1.8-.07.19-.89.39-1.78.58-2.67Z"/><path class="cls-1" d="m734.33,73.96c-2.45.48-4.52.88-6.59,1.28-.09-.08-.17-.17-.26-.25.66-.46,1.27-1.12,2-1.33,1.51-.43,3.11-.74,4.85.3Z"/><path class="cls-1" d="m460.39,177.7c-.51,1.71-1,3.43-1.57,5.12-.08.22-.64.27-.98.41-.38-2.17.83-4.8,2.56-5.53Z"/><path class="cls-1" d="m421.36,169.78c-.14.82-.27,1.62-.4,2.41-1.27-.7-2.62-1.44-4.4-2.41h4.8Z"/><path class="cls-1" d="m622.4,269.02c-2.47.28-4.94.56-7.4.85-.06-.24-.12-.47-.18-.71.54-.24,1.21-.81,1.61-.67,1.98.7,3.93-.3,5.88-.04.03.19.06.38.09.57Z"/><path class="cls-1" d="m498.45,36.42c1.76-1.48,4.04-1.91,5.78-.87-2.12.14-3.64,1.96-5.78.87Z"/><path class="cls-1" d="m495.93,33.16c1.52-2.59,3.4.28,5.02-.65q-1.37,1.63-5.02.65Z"/><path class="cls-1" d="m194.06,67.54c-.67-1.02-1.34-2.05-2.16-3.31,1.11-.07,2.23-.15,3.72-.25-.63,1.39-1.11,2.45-1.59,3.52,0,0,.04.04.04.04Z"/><path class="cls-1" d="m704.46,297.92c-1.83-.99-4.38-1.03-5.04-4.01,1.88,1.32,3.35,2.34,4.8,3.39.15.11.16.41.24.62Z"/><path class="cls-1" d="m188,84.84c.97-1.82,4.33-3.08,5.77-2.26-1.93.75-3.68,1.44-5.77,2.26Z"/><path class="cls-1" d="m223.83,221.94l3.54.86c.01,1.71-1.25,1.13-2.01.95-.81-.19-2.3-.14-1.53-1.81Z"/><path class="cls-1" d="m717.91,329.93c-.75-1.29-1.5-2.59-2.5-4.32.89.23,1.67.21,1.83.51.6,1.12,1,2.35,1.48,3.54-.27.09-.54.18-.81.27Z"/><path class="cls-1" d="m481.53,191.18c-1.83-2.01-1.73-3.12.35-3.68.14,1.01.32,2.02.37,3.03.01.2-.47.43-.72.65Z"/><path class="cls-1" d="m624.73,230.88c-.33-.99-.64-1.69-.76-2.41-.06-.33.16-.98.39-1.05.4-.13,1-.05,1.35.19.23.16.35.79.23,1.11-.23.64-.65,1.2-1.2,2.16Z"/><path class="cls-1" d="m234.65,103.91c.18-.38.23-.71.39-.77.88-.36,1.78-.67,2.68-.99.07.32.31.82.19.93-.85.8-1.74,1.64-3.26.83Z"/><path class="cls-1" d="m612.75,268.83c-.88.55-1.72,1.17-2.64,1.63-1.08.54-1.65-.18-1.56-1.44,1.49-.17,2.83-.32,4.18-.47,0,.09.02.19.02.28Z"/><path class="cls-1" d="m509.65,33.87c-1.56.39-2.8.7-4.04,1.01,1.54-2.61,2.19-2.77,4.04-1.01Z"/><path class="cls-1" d="m631.98,249.69c-.5.65-.93,1.2-1.36,1.76-.18.02-.37.04-.55.06-.16-1.16-.33-2.32-.49-3.48l.49-.08c.6.55,1.21,1.1,1.91,1.74Z"/><path class="cls-1" d="m611.11,233.87c1.21-1.69,2.41-3.39,3.64-5.11.44,1.04-1.3,3.59-3.64,5.11Z"/><path class="cls-1" d="m625.28,269.82c.38,1.44-1.18,1.71-1.68,2.64-.08.15-1.03-.16-1.58-.26-.01-.18-.03-.36-.04-.54,1.12-.6,2.23-1.19,3.35-1.79l-.05-.05Z"/><path class="cls-1" d="m142.48,128.97c.51.3,1.32.49,1.48.92.24.67.03,1.5.02,2.26-.23.01-.46.03-.69.04-.4-.92-.81-1.83-1.21-2.75.14-.16.27-.31.41-.47Z"/><path class="cls-1" d="m256.02,374.07c-1.15-1.15-1.06-1.29,2.58-2.88-.6.87-.88,1.39-1.26,1.81-.37.4-.85.7-1.32,1.07Z"/><path class="cls-1" d="m635.81,259.16c-1.48-.26-3.01-.53-4.5-.79.86-1.35,3.46-.92,4.5.79Z"/><path class="cls-1" d="m216.4,47.67c-1.35.58-2.61,1.68-4.33.2,1.41-.26,2.82-.53,4.24-.79.03.2.06.4.09.59Z"/><path class="cls-1" d="m196.66,49.17c-2.32.27-3.08-.34-3.33-2.52,1.14.86,2.02,1.53,3.33,2.52Z"/><path class="cls-1" d="m411.05,158.2c0,.61.08,1.03-.02,1.4-.14.52-.42,1.01-.64,1.52-.22-.15-.63-.31-.63-.46.01-.62.07-1.27.27-1.85.08-.24.55-.35,1.02-.61Z"/><path class="cls-1" d="m415.11,126.58c-.1-.58-.27-1.15-.27-1.73,0-.38.25-.76.39-1.14.32.27.93.58.9.81-.11.79-.43,1.55-.68,2.32-.11-.08-.23-.17-.34-.25Z"/><path class="cls-1" d="m220.88,48.1c.88-.1,1.76-.19,2.64-.29.05.33.09.66.14,1-.88.14-1.75.28-2.63.42l-.15-1.13Z"/><path class="cls-1" d="m683.49,266.25c-.84-1.14-1.49-2.02-2.13-2.89,1.4.4,2.9.74,2.13,2.89Z"/><path class="cls-1" d="m625.33,269.87c.77-1.81,2.09-1.58,3.56-.68-1.2.21-2.4.42-3.61.63,0,0,.05.05.05.05Z"/><path class="cls-1" d="m540.67,179.25c-.35-1.11-.78-2.2-.97-3.34-.03-.2,1.05-.91,1.38-.79.78.29,2.05,1.06,1.98,1.45-.16.98-.95,1.85-1.49,2.77-.3-.03-.6-.06-.91-.1Z"/><path class="cls-1" d="m432.09,163.31c-.61-.98-1.23-1.97-1.84-2.95.6-1.58,2.14-1.83,3.38-1.75.72.05,1.36,1.36,2.04,2.1-1.19.87-2.39,1.73-3.58,2.6Z"/></g></svg>