<?xml version="1.0" encoding="UTF-8"?><svg id="Layer_1" xmlns="http://www.w3.org/2000/svg" xmlns:xlink="http://www.w3.org/1999/xlink" viewBox="0 0 862.17 401.17"><defs><style>.cls-1{stroke:url(#linear-gradient);}.cls-1,.cls-2,.cls-3,.cls-4,.cls-5,.cls-6,.cls-7,.cls-8,.cls-9,.cls-10,.cls-11,.cls-12,.cls-13,.cls-14{fill:none;stroke-miterlimit:10;}.cls-1,.cls-3,.cls-4,.cls-5,.cls-6,.cls-7,.cls-8,.cls-9,.cls-10,.cls-11,.cls-12,.cls-13,.cls-14{stroke-width:1.42px;}.cls-2{stroke:url(#linear-gradient-3);stroke-width:2.02px;}.cls-3{stroke:url(#linear-gradient-14);}.cls-4{stroke:url(#linear-gradient-15);}.cls-5{stroke:url(#linear-gradient-10);}.cls-6{stroke:url(#linear-gradient-12);}.cls-7{stroke:url(#linear-gradient-13);}.cls-8{stroke:url(#linear-gradient-11);}.cls-9{stroke:url(#linear-gradient-2);}.cls-10{stroke:url(#linear-gradient-6);}.cls-11{stroke:url(#linear-gradient-7);}.cls-12{stroke:url(#linear-gradient-5);}.cls-13{stroke:url(#linear-gradient-9);}.cls-14{stroke:url(#linear-gradient-8);}.cls-15{fill:url(#linear-gradient-4);stroke-width:0px;}</style><linearGradient id="linear-gradient" x1="283.3" y1="290.85" x2="283.3" y2="269.54" gradientUnits="userSpaceOnUse"><stop offset="0" stop-color="#3eac49"/><stop offset="1" stop-color="#36b3a2"/></linearGradient><linearGradient id="linear-gradient-2" x1="231.95" y1="181.26" x2="231.95" y2="159.96" xlink:href="#linear-gradient"/><linearGradient id="linear-gradient-3" x1="390.57" y1="129.88" x2="390.57" y2="99.44" xlink:href="#linear-gradient"/><linearGradient id="linear-gradient-4" x1="390.57" y1="125.33" x2="390.57" y2="106.48" xlink:href="#linear-gradient"/><linearGradient id="linear-gradient-5" x1="384.9" y1="165.8" x2="384.9" y2="144.5" xlink:href="#linear-gradient"/><linearGradient id="linear-gradient-6" x1="530.52" y1="203.23" x2="530.52" y2="181.93" xlink:href="#linear-gradient"/><linearGradient id="linear-gradient-7" x1="515.45" y1="195.3" x2="515.45" y2="174" xlink:href="#linear-gradient"/><linearGradient id="linear-gradient-8" x1="543.96" y1="211.24" x2="543.96" y2="189.93" xlink:href="#linear-gradient"/><linearGradient id="linear-gradient-9" x1="591.63" y1="224.43" x2="591.63" y2="203.13" xlink:href="#linear-gradient"/><linearGradient id="linear-gradient-10" x1="575.76" y1="218.58" x2="575.76" y2="197.28" xlink:href="#linear-gradient"/><linearGradient id="linear-gradient-11" x1="630.78" y1="309.56" x2="630.78" y2="288.26" xlink:href="#linear-gradient"/><linearGradient id="linear-gradient-12" x1="381.26" y1="220.31" x2="381.26" y2="199.01" xlink:href="#linear-gradient"/><linearGradient id="linear-gradient-13" x1="432.9" y1="162.8" x2="432.9" y2="141.5" xlink:href="#linear-gradient"/><linearGradient id="linear-gradient-14" x1="453.9" y1="168.8" x2="453.9" y2="147.5" xlink:href="#linear-gradient"/><linearGradient id="linear-gradient-15" x1="433.96" y1="319.51" x2="433.96" y2="298.2" xlink:href="#linear-gradient"/></defs><path class="cls-1" d="m288.03,281,.77,0l-5.29,9.13h-.39s-5.3-9.2-5.32-9.23c0-1.06,0-10.66,0-10.66h.66l4.83,8.31,4.83-8.31h.65l.02,10.75Zm-10.97-.19.66.13"/><path class="cls-9" d="m236.67,171.42.77,0l-5.29,9.13h-.39l-5.32-9.23c0-1.06,0-10.66,0-10.66h.66l4.83,8.31,4.83-8.31h.65l.02,10.75Zm-10.97-.19.66.13"/><path class="cls-2" d="m397.32,115.82,1.1,0l-7.55,13.05h-.55l-7.59-13.18c0-1.51,0-15.23,0-15.23h.95l6.9,11.87,6.9-11.87h.93l.02,15.36Zm-15.67-.27.95.18"/><path class="cls-15" d="m394.69,117.37,1.67-2.2l-5.61,10.16h-.34s-5.62-10.21-5.64-10.24c0-.85,0-8.61,0-8.61l1.58,2.78,4.21,6.71,4.21-6.71,1.57-2.78v8.69Zm-10.57,2.03.58.11"/><path class="cls-12" d="m389.62,155.96.77,0l-5.29,9.13h-.39l-5.32-9.23c0-1.06,0-10.66,0-10.66h.66l4.83,8.31,4.83-8.31h.65l.02,10.75Zm-10.97-.19.66.13"/><path class="cls-10" d="m535.24,193.39.77,0l-5.29,9.13h-.39s-5.3-9.2-5.32-9.23c0-1.06,0-10.66,0-10.66h.66l4.83,8.31,4.83-8.31h.65l.02,10.75Zm-10.97-.19.66.13"/><path class="cls-11" d="m520.18,185.46.77,0l-5.29,9.13h-.39l-5.32-9.23c0-1.06,0-10.66,0-10.66h.66l4.83,8.31,4.83-8.31h.65l.02,10.75Zm-10.97-.19.66.13"/><path class="cls-14" d="m548.68,201.39.77,0l-5.29,9.13h-.39l-5.32-9.23c0-1.06,0-10.66,0-10.66h.66l4.83,8.31,4.83-8.31h.65l.02,10.75Zm-10.97-.19.66.13"/><path class="cls-13" d="m596.35,214.59.77,0l-5.29,9.13h-.39l-5.32-9.23c0-1.06,0-10.66,0-10.66h.66l4.83,8.31,4.83-8.31h.65l.02,10.75Zm-10.97-.19.66.13"/><path class="cls-5" d="m580.48,208.74.77,0l-5.29,9.13h-.39l-5.32-9.23c0-1.06,0-10.66,0-10.66h.66l4.83,8.31,4.83-8.31h.65l.02,10.75Zm-10.97-.19.66.13"/><path class="cls-8" d="m635.5,299.72.77,0l-5.29,9.13h-.39l-5.32-9.23c0-1.06,0-10.66,0-10.66h.66l4.83,8.31,4.83-8.31h.65l.02,10.75Zm-10.97-.19.66.13"/><path class="cls-6" d="m385.98,210.47.77,0l-5.29,9.13h-.39l-5.32-9.23c0-1.06,0-10.66,0-10.66h.66l4.83,8.31,4.83-8.31h.65l.02,10.75Zm-10.97-.19.66.13"/><path class="cls-7" d="m437.62,152.96.77,0l-5.29,9.13h-.39l-5.32-9.23c0-1.06,0-10.66,0-10.66h.66l4.83,8.31,4.83-8.31h.65l.02,10.75Zm-10.97-.19.66.13"/><path class="cls-3" d="m458.62,158.96.77,0l-5.29,9.13h-.39l-5.32-9.23c0-1.06,0-10.66,0-10.66h.66l4.83,8.31,4.83-8.31h.65l.02,10.75Zm-10.97-.19.66.13"/><path class="cls-4" d="m438.68,309.66.77,0l-5.29,9.13h-.39s-5.3-9.2-5.32-9.23c0-1.06,0-10.66,0-10.66h.66l4.83,8.31,4.83-8.31h.65l.02,10.75Zm-10.97-.19.66.13"/></svg>