<?xml version="1.0" encoding="utf-8"?>
<!-- Generator: Adobe Illustrator 27.5.0, SVG Export Plug-In . SVG Version: 6.00 Build 0)  -->
<svg version="1.1" id="Layer_1" xmlns="http://www.w3.org/2000/svg" xmlns:xlink="http://www.w3.org/1999/xlink" x="0px" y="0px"
	 viewBox="0 0 90 112.5" style="enable-background:new 0 0 90 112.5;" xml:space="preserve">
<style type="text/css">
	.st0{fill:none;stroke:#000000;stroke-width:3.4411;stroke-miterlimit:10;}
</style>
<g>
	<path d="M61.2,64.1l-0.8-0.8c2.7-4.2,4.1-9.1,4.1-14.1c0-7-2.8-13.7-7.7-18.6C51.8,25.8,45.1,23,38.1,23c-2.6,0-5.3,0.4-7.8,1.2
		c-4,1.2-7.6,3.4-10.5,6.2c-5.1,5-8,11.7-8,18.9c0,7,2.8,13.7,7.7,18.6s11.6,7.7,18.6,7.7c5,0,9.8-1.4,14-4.1l0.8,0.9
		c1.3,1.6,3.3,2.2,5.2,1.7c1.1-0.2,2.2-0.8,3.1-1.7c0.9-0.9,1.5-2,1.7-3.1C63.3,67.4,62.8,65.5,61.2,64.1z M38.1,71.6
		c-12.3,0-22.3-10-22.3-22.3c0-6,2.4-11.8,6.8-16c2.7-2.6,6-4.5,9.6-5.5c0,0,0,0,0,0c1.9-0.5,4-0.8,6-0.8c12.3,0,22.3,10,22.3,22.3
		C60.4,61.7,50.4,71.6,38.1,71.6z"/>
	<path d="M76.6,87.9c-1.7,1.7-4.6,2.5-6.8,0L59.1,75.2c0,0,0,0,0,0c1.1-0.2,2.2-0.8,3.1-1.7c0.9-0.9,1.5-2,1.7-3.1c0,0,0,0,0,0
		L76.6,81C79.1,83.3,78.3,86.2,76.6,87.9z"/>
	<path class="st0" d="M45.4,51.4 M46.6,51.4l-8.2,14.2h-0.6c0,0-8.3-14.3-8.3-14.4c0-1.6,0-16.6,0-16.6h1l7.5,12.9l7.5-12.9h1
		L46.6,51.4z M29.6,51.1 M30.6,51.3"/>
</g>
</svg>
