<?xml version="1.0" encoding="UTF-8"?><svg id="Layer_1" xmlns="http://www.w3.org/2000/svg" viewBox="0 0 1080 600"><defs><style>.cls-1{fill:rgba(255,255,255,.6);}.cls-1,.cls-2,.cls-3{stroke-width:0px;}.cls-2{fill:#f3fafa;opacity:.3;}.cls-3{fill:#fff;}</style></defs><path class="cls-2" d="m1401.9,335.29v60.95c-84.67,29.96-172.25,54.33-262.59,51.08-116.05-4.17-227.07-53.9-343.05-48.44-112.55,5.3-218.9,62.37-331.11,53.09-75.06-6.2-143.3-41.65-217.54-53.28-162.46-25.44-326.74,65.55-489.28,40.53-27.23-4.19-53.65-11.58-80.23-18.37v-140.1c8.87,2.35,17.54,5.23,25.82,8.47,41.62,16.32,79.22,40.87,122.81,52.44,113.99,30.26,233.09-34.44,351.96-30.04,107.53,3.99,208.61,64.42,315.35,52.28,62.79-7.15,119.77-39.05,182.83-44.01,77.84-6.13,152.49,29.43,230.54,32.9,86.75,3.86,169.4-31.93,255.75-40.3,78.89-7.64,159.18,7.55,238.74,22.8Z"/><path class="cls-3" d="m1401.9,465.81v134.19H-321.9v-123.12c17.45-.08,35.36,2.97,51.72,7.92,37.63,11.39,71.65,31.18,109.82,41.07,129.48,33.57,263.89-53.11,397.88-39.23,58.03,6.01,111.29,30.53,167.26,45.43,80.36,21.38,167.42,22.6,248.51,3.46,51.35-12.12,100.75-32.26,153.67-36.68,105.97-8.84,207.93,46.4,314.24,41.74,71.69-3.14,137.77-33.11,205.03-55.35,24.29-8.03,49.85-15.04,75.67-19.43Z"/><path class="cls-1" d="m1401.9,396.24v69.57c-25.82,4.39-51.38,11.4-75.67,19.43-20.75,6.86-41.38,14.45-62.1,21.77-46.46,16.41-93.35,31.41-142.93,33.58-80.81,3.54-159.11-27.53-238.57-38.75-25.07-3.54-50.25-5.11-75.67-2.99-2.72.23-5.43.5-8.13.8-49.87,5.67-96.83,24.38-145.54,35.88-81.09,19.14-168.15,17.92-248.51-3.46-55.97-14.9-109.23-39.42-167.26-45.43-133.99-13.88-268.4,72.8-397.88,39.23-38.17-9.89-72.19-29.68-109.82-41.07-16.36-4.95-34.27-8-51.72-7.92v-56.03c26.58,6.79,53,14.18,80.23,18.37,162.54,25.02,326.82-65.97,489.28-40.53,74.24,11.63,142.48,47.08,217.54,53.28,112.21,9.28,218.56-47.79,331.11-53.09,115.98-5.46,227,44.27,343.05,48.44,90.34,3.25,177.92-21.12,262.59-51.08Z"/></svg>