<?xml version="1.0" encoding="UTF-8"?><svg id="Layer_1" xmlns="http://www.w3.org/2000/svg" viewBox="0 0 2000 200"><defs><style>.cls-1{fill:rgba(37,43,103,.6);}.cls-1,.cls-2,.cls-3{stroke-width:0px;}.cls-2{opacity:.3;}.cls-2,.cls-3{fill:#252b67;}</style></defs><path class="cls-2" d="m2007.97,56.7v21.21c-99.25,28.2-201.77,50.74-306.92,45.96-135.71-6.16-264.6-37.69-400.42-34.25-131.8,3.34-257.4,58.35-388.51,47.17-87.7-7.47-166.82-43.96-253.46-56.84-189.59-28.14-383.65,59.66-573.33,31.92-31.77-4.64-62.54-12.45-93.51-19.68l-.5,24.87-.51,24.92c-.06-.02-.11-.03-.16-.04,0,0,0-119.65,0-119.65,43.71,9.86,83.46,31.22,125.94,45.4,74.26,24.79,146.48,6.44,223.34-5.31,78.44-11.98,156.61-31.79,236.55-29.27,125.84,3.98,244.13,64.18,369.05,52.08,73.48-7.12,140.16-38.9,213.96-43.84,91.09-6.11,178.46,29.32,269.8,32.78,101.52,3.85,198.25-31.81,299.3-40.15,92.32-7.61,186.29,7.52,279.39,22.71Z"/><path class="cls-3" d="m2007.97,106.03v94.88H-9.35v-58.98c.06,0,.1.02.16.04l.51-24.92c20.22,0,40.92,3.01,59.85,7.89,41.89,10.8,79.96,29.16,122.03,39.4,2.15.53,4.31,1.04,6.48,1.51,151.53,33.44,308.83-52.91,465.63-39.08,67.91,5.99,130.24,30.42,195.74,45.26,94.04,21.3,195.93,22.52,290.83,3.45,60.1-12.07,117.9-32.14,179.84-36.54,124.01-8.81,243.33,46.23,367.75,41.58,33.74-1.26,66.42-6.84,98.54-14.51,47.77-11.39,94.34-27.39,141.4-40.64,28.42-8,58.34-14.98,88.55-19.36Z"/><path class="cls-1" d="m2007.97,77.91v28.12c-30.22,4.37-60.13,11.36-88.56,19.36-47.06,13.25-93.62,29.25-141.39,40.64-32.14,7.66-64.81,13.25-98.55,14.51-124.41,4.64-243.73-50.39-367.75-41.58-61.93,4.4-119.74,24.47-179.84,36.54-94.9,19.07-196.78,17.85-290.83-3.45-65.5-14.84-127.83-39.27-195.74-45.26-156.81-13.83-314.1,72.53-465.63,39.08-2.18-.48-4.33-.99-6.48-1.51-42.07-10.24-80.14-28.6-122.04-39.4-18.94-4.88-39.64-7.9-59.85-7.89l.5-24.87c30.97,7.22,61.73,15.03,93.51,19.68,189.68,27.74,383.75-60.06,573.33-31.92,86.64,12.87,165.76,49.36,253.46,56.84,131.11,11.18,256.71-43.83,388.51-47.17,135.82-3.44,264.72,28.09,400.42,34.25,105.15,4.78,207.67-17.75,306.92-45.96Z"/></svg>